<?xml version="1.0" encoding="UTF-8"?>
<svg width="442px" height="383px" viewBox="0 0 442 383" version="1.1" xmlns="http://www.w3.org/2000/svg" xmlns:xlink="http://www.w3.org/1999/xlink">
    <!-- Generator: Sketch 57.1 (83088) - https://sketch.com -->
    <title>banner</title>
    <desc>Created with Sketch.</desc>
    <defs>
        <linearGradient x1="49.9897744%" y1="100.011258%" x2="49.9897744%" y2="0%" id="linearGradient-1">
            <stop stop-color="#808080" stop-opacity="0.25" offset="0%"></stop>
            <stop stop-color="#808080" stop-opacity="0.12" offset="54%"></stop>
            <stop stop-color="#808080" stop-opacity="0.1" offset="100%"></stop>
        </linearGradient>
        <linearGradient x1="38141.9465%" y1="71817.9996%" x2="38141.9465%" y2="31218.0456%" id="linearGradient-2">
            <stop stop-color="#808080" stop-opacity="0.25" offset="0%"></stop>
            <stop stop-color="#808080" stop-opacity="0.12" offset="54%"></stop>
            <stop stop-color="#808080" stop-opacity="0.1" offset="100%"></stop>
        </linearGradient>
    </defs>
    <g id="Page-1" stroke="none" stroke-width="1" fill="none" fill-rule="evenodd">
        <g id="banner">
            <path d="M202.558186,1.20734367 C270.610527,-6.16301071 338.875396,20.7459084 383.550469,67.3120247 C430.253939,115.992676 453.194137,182.008359 435.739851,244.260127 C418.68058,305.103808 363.139573,351.183214 297.693133,373.529386 C238.545918,393.724 174.932622,378.583484 118.733004,352.495927 C65.0344514,327.568635 14.4936963,290.533286 3.97772535,237.185892 C-6.08903914,186.118475 34.3777796,142.766629 69.2269496,101.354567 C105.958076,57.7061594 141.975096,7.76881706 202.558186,1.20734367 Z" id="Path" fill="#EEEBFF"></path>
            <path d="M33.252811,302.541463 C46.1920529,302.541463 56.6812965,298.815098 56.6812965,294.218347 C56.6812965,289.621596 46.1920529,285.895231 33.252811,285.895231 C20.3136441,285.895231 9.82432549,289.621596 9.82432549,294.218347 C9.82432549,298.815098 20.3136441,302.541463 33.252811,302.541463 Z" id="Path" fill="#000000" fill-rule="nonzero" opacity="0.1"></path>
            <path d="M411.742273,336.952135 C424.681665,336.952135 435.170608,333.225771 435.170608,328.62902 C435.170608,324.032269 424.681665,320.305904 411.742273,320.305904 C398.80288,320.305904 388.313937,324.032269 388.313937,328.62902 C388.313937,333.225771 398.80288,336.952135 411.742273,336.952135 Z" id="Path" fill="#000000" fill-rule="nonzero" opacity="0.1"></path>
            <path d="M410.795286,329.810312 C410.795286,329.810312 417.042692,308.565827 409.6185,292.928163 C406.456122,286.390127 405.503127,279.002733 406.900702,271.875929 C407.590853,268.497269 408.588906,265.1892 409.883596,261.992276" id="Path" stroke="#535461" stroke-width="2"></path>
            <path d="M405.260561,252.11388 C405.260561,254.715276 409.977469,262.267886 409.977469,262.267886 C409.977469,262.267886 414.694376,254.720533 414.694376,252.11388 C414.694376,250.863498 414.197227,249.664182 413.311822,248.779527 C412.427167,247.895624 411.226349,247.398475 409.975216,247.398475 C408.723331,247.398475 407.522514,247.895624 406.637859,248.779527 C405.752453,249.664182 405.255304,250.863498 405.255304,252.11388 L405.260561,252.11388 Z" id="Path" fill="#1136FC" fill-rule="nonzero"></path>
            <path d="M397.461629,266.539463 C398.877978,268.724065 406.947263,272.500745 406.947263,272.500745 C406.947263,272.500745 406.801573,263.600125 405.385224,261.415524 C405.048784,260.895845 404.613216,260.44751 404.1033,260.096051 C403.592633,259.745343 403.018884,259.49752 402.412843,259.368351 C401.806802,259.239182 401.181986,259.230171 400.57219,259.342067 C399.963145,259.453963 399.381886,259.684514 398.862208,260.020953 C398.341778,260.357392 397.893443,260.792961 397.541984,261.302876 C397.190525,261.812041 396.942702,262.386541 396.813533,262.991831 C396.683614,263.596371 396.674602,264.221186 396.786498,264.830231 C396.899145,265.439276 397.129696,266.019784 397.466886,266.539463 L397.461629,266.539463 Z" id="Path" fill="#1136FC" fill-rule="nonzero"></path>
            <path d="M397.799571,291.180631 C400.126859,292.35141 408.998941,291.544857 408.998941,291.544857 C408.998941,291.544857 404.375155,283.934422 402.048618,282.763643 C400.931159,282.201159 399.635718,282.104282 398.447667,282.495543 C397.259616,282.886804 396.275831,283.73391 395.711845,284.849867 C395.14861,285.965824 395.052484,287.259763 395.443745,288.447063 C395.835006,289.634363 396.682863,290.618147 397.799571,291.180631 Z" id="Path" fill="#1136FC" fill-rule="nonzero"></path>
            <path d="M402.261896,309.772653 C404.344365,311.33319 413.236724,312.019586 413.236724,312.019586 C413.236724,312.019586 409.966955,303.737775 407.873973,302.193008 C406.86841,301.449537 405.607514,301.135627 404.370649,301.320369 C403.133033,301.50511 402.019329,302.173482 401.275108,303.179045 C400.530886,304.183857 400.216976,305.443251 400.401718,306.680116 C400.586459,307.916229 401.255582,309.028431 402.261896,309.772653 Z" id="Path" fill="#1136FC" fill-rule="nonzero"></path>
            <path d="M416.84969,273.005404 C414.9805,274.820524 406.270629,276.698725 406.270629,276.698725 C406.270629,276.698725 408.404916,268.057945 410.274106,266.242825 C411.171527,265.371688 412.379104,264.891812 413.630237,264.909835 C414.881371,264.927859 416.073927,265.44228 416.945816,266.338951 C417.818455,267.235622 418.29758,268.441696 418.279557,269.692078 C418.261533,270.942461 417.747112,272.133516 416.84969,273.005404 Z" id="Path" fill="#1136FC" fill-rule="nonzero"></path>
            <path d="M421.79039,294.806365 C419.463102,295.977143 410.591771,295.17059 410.591771,295.17059 C410.591771,295.17059 415.214806,287.560155 417.542094,286.415661 C418.659553,285.852425 419.954243,285.7563 421.143045,286.147561 C422.331096,286.538822 423.31488,287.385176 423.878116,288.501884 C424.442102,289.617841 424.538227,290.91178 424.146967,292.09908 C423.754955,293.28638 422.907849,294.269414 421.79039,294.832649 L421.79039,294.806365 Z" id="Path" fill="#1136FC" fill-rule="nonzero"></path>
            <path d="M423.680608,316.659894 C421.598139,318.220431 412.70578,318.906827 412.70578,318.906827 C412.70578,318.906827 415.975549,310.625767 418.06778,309.080249 C419.074094,308.336778 420.334239,308.022869 421.571855,308.20761 C422.809471,308.392351 423.923175,309.061475 424.667396,310.066286 C425.411618,311.071098 425.725527,312.330492 425.540786,313.567357 C425.355294,314.803471 424.686171,315.916424 423.680608,316.659894 Z" id="Path" fill="#1136FC" fill-rule="nonzero"></path>
            <path d="M33.2632496,294.281429 C33.2632496,294.281429 46.6382855,248.962016 30.7642122,215.565167 C24.1000873,201.556378 21.9134576,185.836106 24.9695724,170.636263 C26.4429208,163.427602 28.5742782,156.368386 31.3369098,149.547982" id="Path" stroke="#535461" stroke-width="2"></path>
            <path d="M21.4604663,128.453694 C21.4604663,134.009447 31.5295363,150.124735 31.5295363,150.124735 C31.5295363,150.124735 41.5933494,133.998933 41.5933494,128.453694 C41.5933494,125.785461 40.5325145,123.226871 38.6441743,121.339657 C36.7559092,119.453194 34.1947657,118.393561 31.5243545,118.393561 C28.8538682,118.393561 26.2927247,119.453194 24.4044596,121.339657 C22.5161194,123.226871 21.4552845,125.785461 21.4552845,128.453694 L21.4604663,128.453694 Z" id="Path" fill="#1136FC" fill-rule="nonzero"></path>
            <path d="M4.81585702,159.234127 C7.84076098,163.915739 25.0580378,171.957988 25.0580378,171.957988 C25.0580378,171.957988 24.7457051,152.960437 21.7208312,148.299102 C20.2410243,146.128018 17.9699845,144.6208 15.3929953,144.100371 C12.8160061,143.579941 10.1374843,144.087604 7.92982725,145.513716 C5.72219273,146.940578 4.16056655,149.173243 3.57868441,151.734837 C2.99680227,154.297182 3.44082694,156.98419 4.81585702,159.223614 L4.81585702,159.234127 Z" id="Path" fill="#1136FC" fill-rule="nonzero"></path>
            <path d="M5.53954678,211.835798 C10.5063659,214.337314 29.4418108,212.61081 29.4418108,212.61081 C29.4418108,212.61081 19.5497469,196.370108 14.6089718,193.883612 C13.4282053,193.288835 12.1417008,192.93212 10.8229792,192.833741 C9.50418255,192.735363 8.17892745,192.897575 6.92295029,193.311365 C5.6669431,193.724404 4.50474086,194.381512 3.50270773,195.243637 C2.50067459,196.105763 1.67843367,197.157135 1.08292875,198.336175 C0.487423073,199.515965 0.130316125,200.801643 0.0319964959,202.119614 C-0.0663235092,203.436833 0.0960699176,204.760812 0.509905173,206.0157 C1.34568176,208.550259 3.15489867,210.649249 5.53954678,211.850818 L5.53954678,211.835798 Z" id="Path" fill="#1136FC" fill-rule="nonzero"></path>
            <path d="M15.0410859,251.510843 C19.5133243,254.813655 38.4695714,256.306604 38.4695714,256.306604 C38.4695714,256.306604 31.4931137,238.620265 27.0156935,235.332473 C24.8684904,233.746402 22.1784786,233.076527 19.5374308,233.471543 C16.8963078,233.86731 14.5204312,235.294173 12.9325582,237.439724 C11.3446102,239.584524 10.6746606,242.272282 11.0701269,244.911227 C11.465518,247.550173 12.8939578,249.924022 15.0410859,251.510843 Z" id="Path" fill="#1136FC" fill-rule="nonzero"></path>
            <path d="M46.2009145,173.013867 C42.2129082,176.883669 23.6262937,180.894655 23.6262937,180.894655 C23.6262937,180.894655 28.1766341,162.448324 32.1647155,158.578522 C34.0805416,156.71609 36.658432,155.690251 39.3313214,155.726298 C42.0041357,155.763096 44.552888,156.858776 46.4170467,158.773025 C48.2811302,160.687275 49.3077955,163.263137 49.2711476,165.933624 C49.2344998,168.60411 48.1376178,171.151435 46.2217918,173.013867 L46.2009145,173.013867 Z" id="Path" fill="#1136FC" fill-rule="nonzero"></path>
            <path d="M56.743778,219.576153 C51.7769439,222.07842 32.841499,220.351165 32.841499,220.351165 C32.841499,220.351165 42.7334878,204.111214 47.674338,201.623967 C48.8551045,201.02919 50.141609,200.672475 51.4603306,200.574096 C52.7791273,200.475718 54.1043073,200.637929 55.360322,201.05172 C56.6163367,201.46551 57.7785539,202.121867 58.7805871,202.983992 C59.7826202,203.846118 60.6048686,204.89749 61.2003961,206.07728 C61.7958484,207.257071 62.1530147,208.541998 62.251318,209.859969 C62.3496214,211.177939 62.1872594,212.501918 61.7733941,213.756806 C61.3595288,215.011694 60.702421,216.17271 59.8393943,217.173767 C58.9764427,218.175575 57.9245445,218.997147 56.743778,219.591924 L56.743778,219.576153 Z" id="Path" fill="#1136FC" fill-rule="nonzero"></path>
            <path d="M60.7786455,266.216541 C56.3064071,269.519353 37.35016,271.013053 37.35016,271.013053 C37.35016,271.013053 44.3266927,253.325963 48.8041129,250.038171 C50.951241,248.4521 53.6412527,247.782225 56.2823757,248.177241 C58.9234235,248.573008 61.2993002,249.999871 62.8872482,252.145422 C64.4751212,254.290222 65.1450708,256.97798 64.7496796,259.616925 C64.3542133,262.255871 62.9257735,264.62972 60.7786455,266.216541 Z" id="Path" fill="#1136FC" fill-rule="nonzero"></path>
            <path d="M197.3982,182.491239 L168.383322,178.735586 C167.206535,178.584639 166.300853,178.137055 166.331643,177.747296 C166.383461,177.356786 167.373253,177.175049 168.575573,177.347024 L197.52812,181.53449 C198.32491,181.648639 198.928698,181.950533 198.8919,182.215629 C198.855853,182.465706 198.188982,182.595625 197.3982,182.491239 Z" id="Path" fill="#1136FC" fill-rule="nonzero"></path>
            <path d="M197.579937,182.986135 L168.476443,179.97921 C167.295151,179.859804 166.290339,180.077588 166.253541,180.468098 C166.217494,180.857857 167.159975,181.269394 168.33601,181.373029 L197.491322,183.974425 C198.293369,184.047271 198.949725,183.891067 198.975259,183.625971 C198.996286,183.344353 198.376727,183.068743 197.579937,182.986135 Z" id="Path" fill="#1136FC" fill-rule="nonzero"></path>
            <path d="M241.240435,204.859941 L270.250057,201.104288 C271.426843,200.953341 272.332525,200.505757 272.301735,200.115998 C272.249167,199.725488 271.260125,199.543751 270.057806,199.714975 L241.105259,203.902441 C240.308469,204.017341 239.70468,204.318484 239.740727,204.584331 C239.777525,204.833657 240.443645,204.963576 241.240435,204.859941 Z" id="Path" fill="#1136FC" fill-rule="nonzero"></path>
            <path d="M241.05269,205.354086 L270.156184,202.347161 C271.338227,202.227755 272.343039,202.44629 272.379837,202.836049 C272.415884,203.226559 271.473404,203.637345 270.296618,203.741731 L241.141306,206.342376 C240.34001,206.415222 239.683653,206.259018 239.657369,205.993922 C239.637092,205.713055 240.256651,205.437445 241.05269,205.354086 Z" id="Path" fill="#1136FC" fill-rule="nonzero"></path>
            <polygon id="Path" fill="#40414D" fill-rule="nonzero" points="145.2719 235.993335 138.196914 235.993335 138.196914 337.358416 145.2719 337.358416"></polygon>
            <polygon id="Path" fill="#40414D" fill-rule="nonzero" points="299.806392 235.993335 292.730655 235.993335 292.730655 337.358416 299.806392 337.358416"></polygon>
            <path d="M135.494886,227.743065 L298.973555,227.743065 C302.011271,227.743065 304.924324,228.949139 307.072127,231.09469 C309.220682,233.240992 310.427508,236.151792 310.427508,239.187255 L310.427508,240.706488 L124.040933,240.706488 L124.040933,239.187255 C124.040933,236.151792 125.247759,233.240992 127.395563,231.09469 C129.543367,228.949139 132.457171,227.743065 135.494886,227.743065 Z" id="Path" fill="#DFE6F5" fill-rule="nonzero"></path>
            <path d="M134.973706,227.743065 L298.453125,227.743065 C301.490841,227.743065 304.403894,228.949139 306.551698,231.09469 C308.700253,233.240992 309.906327,236.151792 309.906327,239.187255 L309.906327,240.706488 L123.520504,240.706488 L123.520504,239.187255 C123.520504,236.151792 124.726578,233.240992 126.875133,231.09469 C129.022937,228.949139 131.93599,227.743065 134.973706,227.743065 Z" id="Path" fill="#000000" fill-rule="nonzero" opacity="0.1"></path>
            <path d="M135.494886,225.381231 L298.973555,225.381231 C302.011271,225.381231 304.924324,226.587306 307.072127,228.733608 C309.220682,230.87991 310.427508,233.79071 310.427508,236.825422 L310.427508,238.344655 L124.040933,238.344655 L124.040933,236.825422 C124.040933,233.79071 125.247759,230.87991 127.395563,228.733608 C129.543367,226.587306 132.457171,225.381231 135.494886,225.381231 Z" id="Path" fill="#DFE6F5" fill-rule="nonzero"></path>
            <path d="M217.233845,217.130961 C225.052302,217.130961 231.389825,210.798694 231.389825,202.986996 C231.389825,195.175298 225.052302,188.843031 217.233845,188.843031 C209.416139,188.843031 203.077865,195.175298 203.077865,202.986996 C203.077865,210.798694 209.416139,217.130961 217.233845,217.130961 Z" id="Path" stroke="#FFAB50" fill="#FFD77C" fill-rule="nonzero"></path>
            <path d="M217.233845,214.19688 C223.430184,214.19688 228.453492,209.178078 228.453492,202.986996 C228.453492,196.795914 223.430184,191.777112 217.233845,191.777112 C211.037506,191.777112 206.014198,196.795914 206.014198,202.986996 C206.014198,209.178078 211.037506,214.19688 217.233845,214.19688 Z" id="Path" stroke="#FFAB50" fill="#FFD77C" fill-rule="nonzero"></path>
            <path d="M217.233845,211.528647 C221.955259,211.528647 225.783006,207.704655 225.783006,202.986996 C225.783006,198.270088 221.955259,194.445345 217.233845,194.445345 C212.512431,194.445345 208.685435,198.270088 208.685435,202.986996 C208.685435,207.704655 212.512431,211.528647 217.233845,211.528647 Z" id="Path" stroke="#FFAB50" fill="#FFD77C" fill-rule="nonzero"></path>
            <path d="M217.233845,207.788765 C219.88781,207.788765 222.039369,205.638708 222.039369,202.986996 C222.039369,200.335284 219.88781,198.185978 217.233845,198.185978 C214.57988,198.185978 212.428322,200.335284 212.428322,202.986996 C212.428322,205.638708 214.57988,207.788765 217.233845,207.788765 Z" id="Path" stroke="#FFAB50" fill="#FFD77C" fill-rule="nonzero"></path>
            <path d="M208.976816,224.793214 C216.795273,224.793214 223.132796,218.460947 223.132796,210.649249 C223.132796,202.838302 216.795273,196.505284 208.976816,196.505284 C201.158359,196.505284 194.820835,202.838302 194.820835,210.649249 C194.820835,218.460947 201.158359,224.793214 208.976816,224.793214 Z" id="Path" stroke="#FFAB50" fill="#FFD77C" fill-rule="nonzero"></path>
            <path d="M208.976816,221.859884 C215.173155,221.859884 220.196463,216.841082 220.196463,210.649249 C220.196463,204.458167 215.173155,199.439365 208.976816,199.439365 C202.780476,199.439365 197.757169,204.458167 197.757169,210.649249 C197.757169,216.841082 202.780476,221.859884 208.976816,221.859884 Z" id="Path" stroke="#FFAB50" fill="#FFD77C" fill-rule="nonzero"></path>
            <path d="M208.976816,219.1909 C213.698229,219.1909 217.525225,215.366908 217.525225,210.649249 C217.525225,205.932341 213.698229,202.107598 208.976816,202.107598 C204.255402,202.107598 200.427655,205.932341 200.427655,210.649249 C200.427655,215.366908 204.255402,219.1909 208.976816,219.1909 Z" id="Path" stroke="#FFAB50" fill="#FFD77C" fill-rule="nonzero"></path>
            <path d="M208.976816,215.451018 C211.63078,215.451018 213.782339,213.300961 213.782339,210.649249 C213.782339,207.997537 211.63078,205.848231 208.976816,205.848231 C206.322851,205.848231 204.171292,207.997537 204.171292,210.649249 C204.171292,213.300961 206.322851,215.451018 208.976816,215.451018 Z" id="Path" stroke="#FFAB50" fill="#FFD77C" fill-rule="nonzero"></path>
            <path d="M225.491625,224.793214 C233.309331,224.793214 239.647606,218.460947 239.647606,210.649249 C239.647606,202.838302 233.309331,196.505284 225.491625,196.505284 C217.673169,196.505284 211.335645,202.838302 211.335645,210.649249 C211.335645,218.460947 217.673169,224.793214 225.491625,224.793214 Z" id="Path" stroke="#FFAB50" fill="#FFD77C" fill-rule="nonzero"></path>
            <path d="M225.491625,221.859884 C231.687965,221.859884 236.711273,216.841082 236.711273,210.649249 C236.711273,204.458167 231.687965,199.439365 225.491625,199.439365 C219.294535,199.439365 214.271978,204.458167 214.271978,210.649249 C214.271978,216.841082 219.294535,221.859884 225.491625,221.859884 Z" id="Path" stroke="#FFAB50" fill="#FFD77C" fill-rule="nonzero"></path>
            <path d="M225.490875,219.1909 C230.212288,219.1909 234.040035,215.366908 234.040035,210.649249 C234.040035,205.932341 230.212288,202.107598 225.490875,202.107598 C220.770212,202.107598 216.942465,205.932341 216.942465,210.649249 C216.942465,215.366908 220.770212,219.1909 225.490875,219.1909 Z" id="Path" stroke="#FFAB50" fill="#FFD77C" fill-rule="nonzero"></path>
            <path d="M225.491625,215.451018 C228.14559,215.451018 230.296398,213.300961 230.296398,210.649249 C230.296398,207.997537 228.14559,205.848231 225.491625,205.848231 C222.83691,205.848231 220.686102,207.997537 220.686102,210.649249 C220.686102,213.300961 222.83691,215.451018 225.491625,215.451018 Z" id="Path" stroke="#FFAB50" fill="#FFD77C" fill-rule="nonzero"></path>
            <path d="M187.739841,206.529371 L246.722592,206.529371 L246.722592,209.297484 C246.722592,212.029551 246.184139,214.735333 245.137273,217.260129 C244.091157,219.784175 242.556904,222.07842 240.623129,224.010692 C238.689355,225.942965 236.393608,227.474965 233.866559,228.52108 C231.340261,229.566445 228.632225,230.104898 225.897155,230.104898 L208.565278,230.104898 C205.830959,230.104898 203.122924,229.566445 200.595875,228.52108 C198.069576,227.474965 195.773829,225.942965 193.840055,224.010692 C191.90628,222.07842 190.372027,219.784175 189.325161,217.260129 C188.279045,214.735333 187.739841,212.029551 187.739841,209.297484 L187.739841,206.529371 Z" id="Path" fill="#1136FC" fill-rule="nonzero"></path>
            <path d="M241.401896,206.524114 C241.248696,212.671639 238.696865,218.515018 234.291614,222.808373 C229.886363,227.101727 223.976147,229.505616 217.822614,229.506367 L206.113327,229.506367 C207.821057,229.896125 209.567837,230.095135 211.319875,230.099644 L223.117025,230.099644 C226.216322,230.101143 229.285578,229.492098 232.149818,228.307802 C235.014057,227.123506 237.616204,225.387239 239.808316,223.198131 C242.000427,221.009024 243.738947,218.40988 244.925496,215.548645 C246.112045,212.68741 246.722592,209.621157 246.722592,206.524114 L241.401896,206.524114 Z" id="Path" fill="#000000" fill-rule="nonzero" opacity="0.1"></path>
            <polygon id="Path" fill="#40414D" fill-rule="nonzero" points="296.271527 320.2646 296.271527 313.194871 142.913822 313.194871 142.913822 320.2646"></polygon>
            <polygon id="Path" fill="#40414D" fill-rule="nonzero" points="85.4150078 288.507141 79.2246765 288.507141 79.2246765 344.781106 85.4150078 344.781106"></polygon>
            <polygon id="Path" fill="#40414D" fill-rule="nonzero" points="134.307586 288.507141 128.117255 288.507141 128.117255 344.781106 134.307586 344.781106"></polygon>
            <path d="M139.264057,279.231782 C139.264057,282.987435 126.519169,286.035665 110.795892,286.035665 C95.0726157,286.035665 82.9472863,282.992692 82.9472863,279.231782 C82.9472863,275.470873 95.0726157,272.4279 110.795892,272.4279 C126.519169,272.4279 139.264057,275.4919 139.264057,279.231782 Z" id="Path" fill="#F6C6CD" fill-rule="nonzero"></path>
            <path d="M74.2734627,279.226525 L139.2588,279.226525 L139.2588,284.896427 C139.2588,286.345069 138.682798,287.734382 137.65771,288.75872 C136.632622,289.783057 135.241806,290.359059 133.792414,290.359059 L83.6449471,290.359059 C81.159202,290.359059 78.7755902,289.372271 77.0182961,287.616478 C75.261002,285.859935 74.2734627,283.478576 74.2734627,280.995084 L74.2734627,279.226525 Z" id="Path" fill="#40414D" fill-rule="nonzero"></path>
            <path d="M63.2377308,214.160833 L64.5784561,213.858939 C65.521312,213.646412 66.5101278,213.816133 67.3272696,214.332057 C68.1444865,214.84798 68.7231169,215.6673 68.9359447,216.609029 L85.1664333,288.450067 L83.1350314,288.908916 C81.4295549,289.293418 79.6414706,288.985516 78.1635412,288.052047 C76.6856118,287.119329 75.6387451,285.638396 75.2542431,283.934422 L60.4750241,218.517271 C60.3695114,218.050161 60.3572704,217.566529 60.4390522,217.094163 C60.5208339,216.622547 60.6949863,216.171208 60.9516714,215.766429 C61.2082814,215.361651 61.5423175,215.011694 61.9346296,214.736084 C62.3269418,214.460475 62.7697198,214.26522 63.2377308,214.160833 Z" id="Path" fill="#40414D" fill-rule="nonzero"></path>
            <polygon id="Path" fill="#40414D" fill-rule="nonzero" points="350.089035 345.77991 356.279367 345.77991 356.279367 289.505945 350.089035 289.505945"></polygon>
            <polygon id="Path" fill="#40414D" fill-rule="nonzero" points="301.196457 345.77991 307.386788 345.77991 307.386788 289.505945 301.196457 289.505945"></polygon>
            <path d="M296.2505,280.230586 C296.2505,283.986239 308.995388,287.034469 324.718665,287.034469 C340.441941,287.034469 352.567271,283.991496 352.567271,280.230586 C352.567271,276.469676 340.436684,273.410933 324.718665,273.410933 C309.000645,273.410933 296.2505,276.474933 296.2505,280.230586 Z" id="Path" fill="#F6C6CD" fill-rule="nonzero"></path>
            <path d="M351.859096,291.36312 L301.711629,291.36312 C300.262237,291.36312 298.871422,290.787118 297.846333,289.76278 C296.821245,288.738443 296.245243,287.349129 296.245243,285.900488 L296.245243,280.230586 L361.23058,280.230586 L361.23058,281.999145 C361.23058,284.482637 360.243041,286.863996 358.485747,288.620539 C356.728453,290.376331 354.344841,291.36312 351.859096,291.36312 Z" id="Path" fill="#40414D" fill-rule="nonzero"></path>
            <path d="M352.378775,289.906969 L350.347373,289.448871 L366.579814,217.59732 C366.792341,216.654839 367.371347,215.836271 368.188414,215.320347 C369.00548,214.804424 369.994522,214.634702 370.937002,214.847229 L372.277502,215.149124 C373.220733,215.361651 374.040053,215.939906 374.556727,216.756973 C375.072651,217.573288 375.243124,218.560827 375.030596,219.503308 L360.249049,284.930973 C359.864547,286.632694 358.819933,288.112876 357.344257,289.045594 C355.86858,289.978312 354.082749,290.288467 352.378775,289.906969 Z" id="Path" fill="#40414D" fill-rule="nonzero"></path>
            <path d="M354.582151,258.325239 L356.409286,257.747735 C356.409286,257.747735 353.285959,236.898267 353.316749,218.213124 C353.316749,217.692694 353.316749,217.136218 353.316749,216.600769 C353.353547,215.435247 353.394851,214.280239 353.452676,213.151516 C353.525522,211.705878 353.541292,210.327078 353.530778,208.990333 C353.702002,190.996843 346.605988,183.396922 346.605988,183.396922 C346.605988,183.396922 338.276114,171.526175 333.282845,169.216159 C332.851031,167.863643 332.356135,166.125875 331.919065,164.10799 C332.080525,163.998347 332.236729,163.889455 332.387676,163.775306 C334.449869,162.24631 336.422694,160.601663 338.297141,158.848875 C340.857984,156.450243 343.315943,153.527427 343.180016,150.229122 C343.194284,149.907702 343.183771,149.586282 343.149225,149.267116 C342.675357,145.28692 338.535953,142.291259 336.865022,138.519835 C335.459186,135.351449 335.881237,131.824845 334.652633,128.609898 C333.424029,125.394951 329.133678,122.403796 325.895451,124.094253 C324.702894,124.719069 323.984206,125.821508 322.989908,126.658851 C320.522186,128.739818 316.544994,128.932069 313.170839,127.985833 C309.797435,127.038847 308.79788,123.178808 304.080973,123.168294 C304.499269,123.308727 304.900292,123.499476 305.272778,123.736035 C304.879265,123.669198 304.480494,123.634653 304.080973,123.631649 C305.039975,123.935045 305.890835,124.509545 306.530671,125.286059 C307.169755,126.062573 307.570778,127.007306 307.683425,128.00611 C307.675916,128.132275 307.662398,128.256937 307.642122,128.380849 C305.757161,129.395424 303.278925,128.81792 301.019225,128.781873 C298.760276,128.745075 296.188169,129.884312 296.411961,131.730973 C296.373661,131.941247 296.373661,132.156027 296.411961,132.365551 C296.708598,133.764627 298.583045,134.821257 298.812094,136.115947 C298.812094,136.152745 298.812094,136.183535 298.812094,136.220333 C294.630635,138.308059 290.106729,139.626029 285.45741,140.111163 C285.306463,140.111163 285.374802,140.293651 285.593337,140.558747 L285.45741,140.558747 C284.608802,140.647363 290.544551,145.334231 291.221184,145.641382 C293.69942,146.764849 296.662037,147.591678 299.285963,148.455306 L299.515012,148.528151 C298.631108,150.579829 298.175263,152.791467 298.176765,155.025633 C298.176765,163.036341 303.940539,169.767378 311.744727,171.671114 C313.20238,173.372835 314.732878,175.239773 316.1282,177.096947 L316.029071,177.096947 C316.029071,177.096947 307.05861,189.020263 307.345484,206.826008 C307.319951,209.057922 307.437855,211.289084 307.699196,213.505227 C301.930916,213.1778 289.534482,211.658567 280.105924,204.760812 C267.386569,195.465176 253.199047,198.253567 256.156408,203.829596 C259.113769,209.406376 274.25879,214.051941 276.700978,214.519802 C276.930027,214.561106 277.460971,214.68652 278.220963,214.873514 C275.211784,215.440504 273.150343,216.434051 273.275006,217.770796 C273.519825,220.32488 286.483249,228.461002 294.308465,228.923606 C299.478214,229.230757 305.700086,230.822835 310.609245,232.221912 C311.083114,242.912118 308.495986,246.116551 308.495986,246.116551 C308.495986,246.116551 309.266492,246.589669 310.541657,247.261045 L309.994943,248.821582 C306.819047,250.652473 302.904186,252.561465 299.343037,253.33122 C294.804863,254.263186 290.393604,255.729851 286.202382,257.701175 L268.588888,266.206027 C267.016335,266.935229 265.655559,268.053439 264.634976,269.454018 C263.615145,270.854596 262.968551,272.492484 262.758276,274.212229 C262.373024,277.816935 263.461194,282.322067 269.354888,285.895231 C269.719114,288.824055 271.510202,292.241767 276.211339,295.373355 C285.322233,301.42851 309.266492,319.56769 312.525747,322.043673 C312.588078,326.470702 312.004567,335.350294 306.53818,336.7336 C299.686986,338.471369 305.199933,345.056716 310.739916,344.796876 C312.054131,345.294025 313.484749,345.398412 314.857541,345.098771 C320.730959,343.7042 342.253306,336.255225 343.721473,325.112929 C343.783053,324.630049 343.810839,324.143414 343.804831,323.656027 C343.890443,321.756798 343.415824,319.87409 342.441051,318.240708 C342.670851,318.744616 342.857094,319.266547 342.998278,319.801245 C341.217704,315.744449 336.880792,313.194871 333.506637,311.759747 C333.506637,311.722949 333.506637,311.681645 333.506637,311.644847 C332.986208,311.442082 332.465778,311.275365 332.038471,311.125169 C332.047482,310.823275 332.024953,310.52138 331.970882,310.224743 L298.21882,286.987908 C298.21882,286.987908 312.895229,274.903882 328.061278,276.766314 C343.227327,278.627994 345.643231,275.876402 345.643231,275.876402 C345.643231,275.876402 353.421135,268.484502 354.202155,259.974392 L354.691794,259.844473 C354.691794,259.844473 354.654996,259.308273 354.582151,258.325239 Z" id="Path" fill="url(#linearGradient-1)" fill-rule="nonzero"></path>
            <path d="M313.363841,318.849753 C313.363841,318.849753 314.743392,334.024063 307.839629,335.865467 C300.935867,337.706871 307.381531,345.061973 312.900486,343.668153 C318.41869,342.274333 338.677137,334.928994 340.056688,323.900847 C341.436239,312.8727 326.249163,309.184635 326.249163,309.184635 L313.363841,318.849753 Z" id="Path" fill="#B8616E" fill-rule="nonzero"></path>
            <path d="M313.363841,318.849753 C313.363841,318.849753 314.743392,334.024063 307.839629,335.865467 C300.935867,337.706871 307.381531,345.061973 312.900486,343.668153 C318.41869,342.274333 338.677137,334.928994 340.056688,323.900847 C341.436239,312.8727 326.249163,309.184635 326.249163,309.184635 L313.363841,318.849753 Z" id="Path" fill="#000000" fill-rule="nonzero" opacity="0.05"></path>
            <path d="M316.138714,319.307851 C316.138714,319.307851 317.518265,334.48141 310.614502,336.322814 C303.71149,338.164218 310.156404,345.520071 315.675359,344.126251 C321.194314,342.73168 341.45201,335.387092 342.831561,324.358945 C344.211112,313.330798 329.024035,309.642733 329.024035,309.642733 L316.138714,319.307851 Z" id="Path" fill="#B8616E" fill-rule="nonzero"></path>
            <path d="M330.404337,310.110594 L317.528778,319.770455 C317.528778,319.770455 317.585853,320.426061 317.622651,321.471425 C322.485249,320.139937 333.08008,316.60282 333.241541,311.067343 C332.315582,310.691853 331.367845,310.372686 330.404337,310.110594 Z" id="Path" fill="#000000" fill-rule="nonzero" opacity="0.1"></path>
            <polygon id="Path" fill="#F8BDC5" fill-rule="nonzero" points="322.350073 177.892986 316.825861 177.892986 316.825861 182.033892 322.350073 182.033892"></polygon>
            <path d="M317.060167,244.800082 C317.060167,244.800082 308.287214,251.687324 301.081557,253.320706 C296.797965,254.247416 292.644292,255.699061 288.716665,257.6441 L272.145531,266.060337 C270.639816,266.816575 269.34888,267.938539 268.390629,269.322596 C267.431627,270.706653 266.8361,272.309245 266.657367,273.98318 C266.184249,278.664792 268.068459,284.823582 279.31439,288.486114 L314.753906,317.918537 L325.801578,308.72128 L288.061059,279.757469 L317.060167,261.821053 L317.060167,244.800082 Z" id="Path" fill="#758AC8" fill-rule="nonzero"></path>
            <path d="M317.060167,244.800082 C317.060167,244.800082 308.287214,251.687324 301.081557,253.320706 C296.797965,254.247416 292.644292,255.699061 288.716665,257.6441 L272.145531,266.060337 C270.639816,266.816575 269.34888,267.938539 268.390629,269.322596 C267.431627,270.706653 266.8361,272.309245 266.657367,273.98318 C266.184249,278.664792 268.068459,284.823582 279.31439,288.486114 L314.753906,317.918537 L325.801578,308.72128 L288.061059,279.757469 L317.060167,261.821053 L317.060167,244.800082 Z" id="Path" fill="#000000" fill-rule="nonzero" opacity="0.1"></path>
            <path d="M311.994053,213.994116 C311.994053,213.994116 294.964822,214.452214 282.994945,205.254957 C271.02582,196.058451 257.681649,198.8153 260.441502,204.334255 C263.200604,209.853961 277.471484,214.452214 279.772488,214.909561 C282.073492,215.367659 315.212004,224.570173 315.212004,224.570173 L311.994053,213.994116 Z" id="Path" fill="#F8BDC5" fill-rule="nonzero"></path>
            <path d="M311.994053,213.994116 C311.994053,213.994116 294.964822,214.452214 282.994945,205.254957 C271.02582,196.058451 257.681649,198.8153 260.441502,204.334255 C263.200604,209.853961 277.471484,214.452214 279.772488,214.909561 C282.073492,215.367659 315.212004,224.570173 315.212004,224.570173 L311.994053,213.994116 Z" id="Path" fill="#000000" fill-rule="nonzero" opacity="0.05"></path>
            <path d="M313.83771,240.66969 L308.313498,257.228057 C308.313498,257.228057 277.247692,276.313473 274.711631,278.842024 C272.744063,280.80809 270.109624,288.501884 279.31439,294.936284 C288.519157,301.371435 313.832453,321.611859 313.832453,321.611859 C313.832453,321.611859 333.163439,317.450676 331.783888,309.647239 L300.024927,286.655224 C300.024927,286.655224 313.832453,274.690604 328.102582,276.537265 C342.373463,278.383925 344.674467,275.616563 344.674467,275.616563 C344.674467,275.616563 355.722139,264.567388 352.036327,254.007853 C348.350516,243.447567 313.83771,240.66969 313.83771,240.66969 Z" id="Path" fill="#758AC8" fill-rule="nonzero"></path>
            <path d="M306.933947,165.730859 C306.933947,165.730859 322.584378,182.746573 321.662925,187.802924 C320.740722,192.859275 334.090149,173.086712 334.090149,173.086712 C334.090149,173.086712 329.925212,162.968753 330.867692,151.930092 L306.933947,165.730859 Z" id="Path" fill="#F8BDC5" fill-rule="nonzero"></path>
            <path d="M320.589775,181.336982 C321.657669,180.210512 322.781886,179.138863 323.958673,178.127292 C326.313747,176.197273 328.474318,174.041959 330.408843,171.692141 C333.632051,167.530959 345.59592,185.487651 345.59592,185.487651 C345.59592,185.487651 352.95778,193.764206 352.041584,213.542025 C351.125388,233.319845 353.192086,259.761114 353.192086,259.761114 L350.4067,260.536125 C348.060637,261.318647 345.564378,261.544692 343.115431,261.196988 C340.667235,260.849284 338.332437,259.937594 336.29728,258.533261 C332.621982,255.994947 327.967406,253.33122 324.427284,253.092408 C317.523522,252.63431 311.306906,248.722453 311.306906,248.722453 C311.306906,248.722453 314.301065,241.595649 309.698306,218.598376 C305.096298,195.600353 316.825861,179.256016 316.825861,179.256016 C316.825861,179.256016 317.752571,184.260549 320.589775,181.336982 Z" id="Path" fill="#000000" fill-rule="nonzero" opacity="0.1"></path>
            <path d="M354.800686,257.685404 L352.041584,258.606106 L350.401443,259.152069 C348.05538,259.93459 345.559122,260.161386 343.110175,259.813682 C340.661978,259.465978 338.32718,258.554288 336.292024,257.149204 C332.621982,254.616147 327.962149,251.947914 324.422027,251.708351 C317.528778,251.244996 309.719333,246.189396 309.719333,246.189396 C309.719333,246.189396 314.321341,240.212343 309.719333,217.21432 C305.116575,194.216296 316.852145,177.892986 316.852145,177.892986 C316.852145,177.892986 317.778855,182.871235 320.616059,179.942412 C321.6817,178.817443 322.804416,177.748047 323.9797,176.737978 C326.334775,174.80871 328.494594,172.653396 330.429871,170.303578 C333.653078,166.141645 345.616947,184.099088 345.616947,184.099088 C345.616947,184.099088 352.978808,192.374892 352.062612,212.152712 C351.963482,214.233678 351.921427,216.376976 351.916922,218.545808 C351.848582,237.054471 354.800686,257.685404 354.800686,257.685404 Z" id="Path" fill="#5E52AD" fill-rule="nonzero"></path>
            <path d="M328.565937,212.616067 L329.024035,222.733275 C329.024035,222.733275 304.627686,224.112075 299.566829,219.055724 C294.506724,213.999373 313.363841,233.928139 317.528778,235.150735 C321.438382,236.300486 331.533812,237.31431 336.828975,237.418696 C338.341449,237.46751 339.835149,237.075498 341.129088,236.291475 C342.423027,235.507451 343.461633,234.364459 344.117239,233.00218 C344.734545,231.66168 344.934306,230.165727 344.690237,228.710327 C343.768784,222.733275 344.690237,209.85321 344.690237,209.85321 L328.565937,212.616067 Z" id="Path" fill="#000000" fill-rule="nonzero" opacity="0.1"></path>
            <path d="M328.565937,211.695365 L329.024035,221.813324 C329.024035,221.813324 304.627686,223.191373 299.566829,218.135022 C294.506724,213.078671 276.195569,214.197631 276.555288,218.135022 C276.784337,220.663573 288.982512,228.711078 296.339116,229.173682 C303.69572,229.637037 313.363841,233.007437 317.528778,234.230033 C321.438382,235.379784 331.533812,236.393608 336.828975,236.497994 C338.341449,236.546808 339.835149,236.154796 341.129088,235.370773 C342.423027,234.586749 343.461633,233.444508 344.117239,232.081478 C344.734545,230.740978 344.934306,229.245776 344.690237,227.789625 C343.768784,221.813324 344.690237,208.933259 344.690237,208.933259 L328.565937,211.695365 Z" id="Path" fill="#F8BDC5" fill-rule="nonzero"></path>
            <path d="M334.090149,182.262941 C334.090149,182.262941 323.505831,183.64099 324.885382,199.277904 C326.264933,214.914818 328.107839,216.293618 328.107839,216.293618 C328.107839,216.293618 343.758271,214.914818 345.59592,214.452214 C347.433569,213.988859 346.517373,196.979153 346.517373,196.979153 C346.517373,196.979153 346.054018,181.804843 334.090149,182.262941 Z" id="Path" fill="#000000" fill-rule="nonzero" opacity="0.1"></path>
            <path d="M334.090149,181.804843 C334.090149,181.804843 323.505831,183.183643 324.885382,198.820557 C326.264933,214.457471 328.107839,215.836271 328.107839,215.836271 C328.107839,215.836271 343.758271,214.457471 345.59592,213.994116 C347.433569,213.531512 346.517373,196.521055 346.517373,196.521055 C346.517373,196.521055 346.054018,181.336982 334.090149,181.804843 Z" id="Path" fill="#5E52AD" fill-rule="nonzero"></path>
            <path d="M330.174537,161.797975 C329.451343,158.157222 330.93528,157.033004 331.32579,152.37242 L307.376275,166.167929 C307.376275,166.167929 310.120357,169.153827 313.238427,172.987582 C314.632247,173.339792 316.065118,173.514771 317.502494,173.5082 C323.776184,173.533545 327.207414,166.802508 330.174537,161.797975 Z" id="Path" fill="#000000" fill-rule="nonzero" opacity="0.1"></path>
            <path d="M317.05491,173.065684 C326.460188,173.065684 334.084892,165.447739 334.084892,156.049971 C334.084892,146.652953 326.460188,139.034257 317.05491,139.034257 C307.649631,139.034257 300.024927,146.652953 300.024927,156.049971 C300.024927,165.447739 307.649631,173.065684 317.05491,173.065684 Z" id="Path" fill="#F8BDC5" fill-rule="nonzero"></path>
            <path d="M321.350518,150.884727 C318.746869,152.539137 318.710822,156.27902 320.38701,158.869902 C322.063198,161.460033 324.952971,163.171518 327.7331,164.783873 C328.540404,165.252484 329.430316,165.736116 330.335998,165.631729 C331.032908,165.496553 331.678,165.170627 332.199931,164.690751 C334.145722,163.173771 336.002145,161.546396 337.76019,159.816137 C340.290994,157.329641 342.721918,154.265641 342.326151,150.796112 C341.878567,146.857971 337.984733,143.8931 336.41218,140.163731 C335.089704,137.041906 335.485471,133.541586 334.329712,130.352924 C333.173953,127.16351 329.123165,124.21441 326.092959,125.883839 C324.973998,126.498141 324.296614,127.595324 323.360141,128.422904 C321.03811,130.472329 317.294473,130.675094 314.118576,129.738622 C310.94268,128.802149 310.0002,124.978908 305.570167,124.968394 C307.772041,125.743406 309.261235,128.037651 308.922543,130.129131 C307.147225,131.133192 304.81468,130.560945 302.675137,130.524147 C300.535594,130.4881 297.98902,131.684412 298.359253,133.609175 C298.682175,135.169712 300.935867,136.329225 300.603182,137.890514 C296.692076,139.948951 292.428761,141.254155 288.034775,141.739288 C287.237984,141.827904 292.819271,146.462955 293.4546,146.770106 C295.781888,147.883059 298.577788,148.700125 301.040253,149.553239 C307.730737,151.857247 314.581931,152.679571 321.350518,150.884727 Z" id="Path" fill="#000000" fill-rule="nonzero" opacity="0.1"></path>
            <path d="M321.350518,150.421373 C318.746869,152.075782 318.710822,155.815665 320.38701,158.406547 C322.063198,160.997429 324.952971,162.708914 327.7331,164.321269 C328.540404,164.789129 329.430316,165.273512 330.335998,165.169125 C331.032908,165.033198 331.678,164.707273 332.199931,164.227396 C334.145722,162.711167 336.002145,161.083041 337.76019,159.353533 C340.290994,156.867037 342.721918,153.803037 342.326151,150.333508 C341.878567,146.395367 337.984733,143.430496 336.41218,139.700376 C335.089704,136.579302 335.485471,133.078231 334.329712,129.889569 C333.173953,126.700906 329.123165,123.751055 326.092959,125.421235 C324.973998,126.034786 324.296614,127.13272 323.360141,127.959549 C321.03811,130.008975 317.294473,130.21249 314.118576,129.276018 C310.94268,128.339545 310.0002,124.516304 305.570167,124.50579 C307.772041,125.280802 309.261235,127.575047 308.922543,129.665776 C307.147225,130.669837 304.81468,130.09759 302.675137,130.061543 C300.535594,130.024745 297.98902,131.221057 298.359253,133.14582 C298.682175,134.706357 300.935867,135.866622 300.603182,137.427159 C296.692076,139.485596 292.428761,140.791551 288.034775,141.276684 C287.237984,141.3653 292.819271,146.000351 293.4546,146.306751 C295.781888,147.420455 298.577788,148.236771 301.040253,149.089884 C307.730737,151.3999 314.581931,152.205702 321.350518,150.421373 Z" id="Path" fill="#916168" fill-rule="nonzero"></path>
            <path d="M341.62849,317.570082 C342.368206,319.273306 342.625792,321.146251 342.373463,322.985402 C340.993912,334.024063 320.740722,341.379165 315.217261,342.752708 C312.306461,343.481159 309.135822,341.780188 307.808839,339.735269 C308.662704,342.139157 312.338002,344.505496 315.680616,343.67341 C321.204076,342.29461 341.457267,334.934251 342.836818,323.906104 C343.137961,321.719249 342.713657,319.493343 341.62849,317.570082 Z" id="Path" fill="#FFFFFF" fill-rule="nonzero" opacity="0.1"></path>
            <path d="M195.357035,330.112206 C194.945498,329.186247 192.811212,327.38089 182.518275,326.991131 C175.468822,326.725284 173.068688,323.006429 172.418339,319.375439 C174.735114,319.073545 176.546478,318.657502 177.139753,318.079998 C177.139753,318.079998 177.108963,317.91328 177.057145,317.616643 L177.139753,317.554312 C176.689916,314.935643 176.454859,312.283931 176.437586,309.626963 C176.424069,307.352994 176.664382,305.084282 177.155524,302.864384 C177.442398,301.396218 177.562555,299.901016 177.515243,298.405814 C177.572318,289.56302 174.46401,274.019227 174.46401,274.019227 L174.037453,261.103116 C173.994647,259.491512 173.517775,257.921212 172.657151,256.557431 C171.797278,255.193651 170.585196,254.085955 169.148571,253.352247 C168.125735,252.823557 166.993257,252.541939 165.842755,252.530675 C165.842755,252.530675 149.525453,249.96082 134.838529,248.560992 C133.797671,247.723649 130.126878,245.466202 121.713645,246.761643 L116.871324,232.601908 C116.832273,232.430684 116.804486,232.256457 116.788716,232.081478 C116.959939,230.281378 118.16301,227.571841 123.769829,227.399867 L124.941359,228.439975 C124.941359,228.439975 125.14938,228.029188 125.498586,227.399867 C132.454167,227.321765 170.345633,226.936512 172.298182,227.399867 C174.448239,227.920296 193.28508,223.727573 193.826537,223.207143 C201.146343,216.075082 172.298182,219.534849 172.298182,219.534849 C169.460978,219.997453 160.292259,219.446233 150.900498,218.681735 C155.549818,211.715641 159.922776,188.073276 159.922776,188.073276 C159.922776,188.073276 176.583276,179.682573 171.761982,174.964163 C166.940688,170.246504 152.388941,185.451604 152.388941,185.451604 C152.388941,185.451604 146.469714,202.757947 143.7782,208.002043 C142.73659,210.082259 141.38858,210.508816 140.18551,210.270004 C140.732224,209.832933 141.085935,209.573094 141.085935,209.573094 C141.085935,209.573094 129.24748,200.131018 128.169073,196.46398 C127.968561,195.863196 127.703465,195.285692 127.37829,194.741982 C126.810549,191.418143 125.816251,188.146122 123.389833,185.966776 C122.982802,185.528955 122.532214,185.133939 122.04708,184.785484 C121.390724,184.317624 120.646502,183.911343 120.026943,183.402178 C120.375398,181.799586 120.781678,180.135414 121.202978,178.522308 C129.991702,177.4822 136.82262,170.199192 136.82262,161.356398 C136.821118,160.022657 136.66191,158.693422 136.348751,157.397229 C137.662216,157.483592 138.97568,157.22901 140.161478,156.659016 C141.347276,156.088271 142.365606,155.220888 143.116586,154.140978 C144.891904,151.498278 144.834829,147.898829 143.345635,145.110439 C142.730582,143.978712 141.923278,142.961133 140.961273,142.103514 C139.42702,140.559498 137.556327,139.391724 135.494886,138.691059 C133.709055,138.072251 131.735478,137.702769 130.31988,136.490686 C129.686804,135.663857 129.110802,134.794973 128.59638,133.890041 C128.002355,133.00088 127.303192,132.187569 126.513912,131.465876 C123.910263,128.787129 120.234965,127.137976 116.491327,126.409525 C111.930624,125.519614 107.218973,125.837278 102.580167,126.154943 C100.846904,126.274349 98.8109961,126.5815 98.0299765,128.089469 C97.4419588,129.223449 97.8272118,130.581222 97.7491098,131.845873 C97.5042902,135.866622 92.9015314,138.088022 88.8980549,139.060541 C84.8945784,140.033061 80.1198451,140.876412 78.1883235,144.403016 C76.4340333,147.586422 77.6678941,151.446461 78.2303784,155.020376 C79.166851,161.294818 77.7722804,167.695424 74.3099604,173.013867 C72.550188,175.703127 70.2801996,178.095751 68.8901349,180.983271 C67.3501745,184.201222 66.9926327,187.858496 67.8801414,191.313757 C68.1404312,192.323075 68.5153206,193.35342 68.3278759,194.383014 C68.1148227,195.232373 67.6965267,196.016396 67.1095604,196.666745 C64.71551,199.620351 61.7360704,202.04752 58.3583108,203.795802 C54.9806263,205.544084 51.277542,206.575931 47.4817116,206.826008 C47.8005027,207.881886 48.4233659,208.821363 49.2727247,209.525782 C50.3517333,210.592175 51.610001,211.460308 52.9900025,212.09038 C56.6256488,213.912259 60.4487398,215.333865 64.3919125,216.330416 C67.0470788,217.001041 69.8221016,217.479416 72.5242041,217.022069 C75.2264569,216.563971 77.8608961,215.019204 78.9693431,212.574012 C79.6151863,211.159165 79.7090588,209.557324 80.2813059,208.116192 C81.4220451,205.23468 84.2487353,203.366992 86.1592294,200.896267 C85.5163902,207.263078 85.2122431,213.659929 85.2482902,220.059784 C85.2482902,222.062649 85.2482902,223.868006 85.2482902,225.542692 C85.2482902,232.767875 84.7278608,237.75138 80.2452588,246.776663 C79.7105608,247.725902 79.4770059,248.814073 79.5738824,249.898488 C79.4762549,250.484253 79.5325784,251.085037 79.7383471,251.642265 C79.9433647,252.199492 80.2903176,252.693637 80.7446608,253.076637 C80.4322529,254.876737 80.2813059,256.700869 80.2918196,258.528004 C80.2294882,265.103588 82.4523902,273.931363 94.2397784,276.167782 L115.226676,275.127675 C115.226676,275.127675 144.824316,269.358643 152.894351,273.567137 C153.560471,273.708322 154.1575,274.074049 154.587061,274.601988 C155.015871,275.129927 155.250927,275.789288 155.252429,276.469676 C155.227647,276.906747 155.160059,277.340814 155.049665,277.765118 C154.825122,279.127396 154.73951,280.509951 154.794331,281.890253 C154.758284,290.733047 156.663522,310.802247 156.663522,310.802247 L156.663522,319.313108 C155.320769,321.330992 153.664857,324.31689 153.878135,326.517263 C153.878135,326.564575 153.878135,326.616392 153.878135,326.662953 C153.878135,326.709514 153.878135,326.792873 153.909676,326.855204 C153.940467,326.918286 153.909676,326.970104 153.945724,327.027178 C153.982522,327.084253 153.977265,327.136822 153.993035,327.193896 C154.008055,327.250971 154.034339,327.318559 154.060624,327.375633 C154.086157,327.432708 154.096671,327.469506 154.117698,327.516067 C154.138725,327.563378 154.185286,327.651243 154.222084,327.713575 L154.284416,327.823218 C154.346747,327.923098 154.416588,328.019224 154.492437,328.109341 C157.183951,331.230416 170.632508,337.2698 174.943135,337.02498 C179.51961,336.765141 194.852376,337.54541 195.393833,330.731014 C195.462173,330.527498 195.449406,330.305959 195.357035,330.112206 Z" id="Path" fill="url(#linearGradient-2)" fill-rule="nonzero"></path>
            <path d="M157.100592,316.940761 C157.100592,316.940761 150.853186,324.743447 153.456835,327.864522 C156.059733,330.985596 169.075725,336.952135 173.240663,336.708067 C177.66619,336.447476 192.504061,337.228496 193.02449,330.465918 C193.02449,330.465918 194.0661,327.344092 180.529678,326.824414 C166.993257,326.303984 171.158194,312.259149 171.158194,312.259149 L157.100592,316.940761 Z" id="Path" fill="#594C76" fill-rule="nonzero"></path>
            <path d="M82.650649,251.395943 C82.650649,251.395943 76.4024922,272.723786 95.1454608,276.36529 L115.450469,275.325182 C115.450469,275.325182 144.085351,269.602712 151.894796,273.764645 C151.894796,273.764645 155.018124,274.285075 153.977265,278.446257 C152.935655,282.60819 155.539304,310.698612 155.539304,310.698612 L155.539304,320.061835 C155.539304,320.061835 173.240663,320.061835 175.323131,317.980869 C175.323131,317.980869 173.761092,309.657753 175.323131,302.895175 C176.885171,296.132596 172.720233,274.804753 172.720233,274.804753 L172.308696,261.966743 C172.277906,260.379922 171.825065,258.830649 170.995982,257.477382 C170.1669,256.124116 168.991616,255.01642 167.591788,254.267692 C166.606502,253.745761 165.510071,253.467898 164.394865,253.455882 C164.394865,253.455882 128.992147,247.734163 116.496584,248.774271 C104.001773,249.815129 82.650649,251.395943 82.650649,251.395943 Z" id="Path" fill="#000000" fill-rule="nonzero" opacity="0.1"></path>
            <path d="M82.650649,250.876265 C82.650649,250.876265 76.4024922,272.204108 95.1454608,275.845612 L115.450469,274.804753 C115.450469,274.804753 144.085351,269.083033 151.894796,273.244216 C151.894796,273.244216 155.018124,273.764645 153.977265,277.925827 C152.935655,282.087761 155.539304,310.178182 155.539304,310.178182 L155.539304,319.541406 C155.539304,319.541406 173.240663,319.541406 175.323131,317.46119 C175.323131,317.46119 173.761092,309.138075 175.323131,302.375496 C176.885171,295.612918 172.720233,274.285075 172.720233,274.285075 L172.308696,261.446314 C172.277906,259.860243 171.825065,258.31022 170.995982,256.957704 C170.1669,255.604437 168.991616,254.49599 167.591788,253.747263 C166.606502,253.225331 165.510071,252.947469 164.394865,252.936204 C164.394865,252.936204 128.992147,247.213733 116.496584,248.254592 C104.001773,249.2947 82.650649,250.876265 82.650649,250.876265 Z" id="Path" fill="#8B9CD1" fill-rule="nonzero"></path>
            <path d="M136.275906,208.740257 C136.275906,208.740257 140.440843,213.942298 143.043741,208.740257 C145.64739,203.538216 151.374367,186.372306 151.374367,186.372306 C151.374367,186.372306 165.431218,171.286612 170.116584,175.968224 C174.802702,180.649835 158.662631,188.972951 158.662631,188.972951 C158.662631,188.972951 152.935655,220.704876 147.729859,221.225306 C142.523312,221.744984 134.713867,221.225306 134.713867,221.225306 L132.110218,215.502835 L136.275906,208.740257 Z" id="Path" fill="#F8BDC5" fill-rule="nonzero"></path>
            <path d="M136.275906,208.740257 C136.275906,208.740257 140.440843,213.942298 143.043741,208.740257 C145.64739,203.538216 151.374367,186.372306 151.374367,186.372306 C151.374367,186.372306 165.431218,171.286612 170.116584,175.968224 C174.802702,180.649835 158.662631,188.972951 158.662631,188.972951 C158.662631,188.972951 152.935655,220.704876 147.729859,221.225306 C142.523312,221.744984 134.713867,221.225306 134.713867,221.225306 L132.110218,215.502835 L136.275906,208.740257 Z" id="Path" fill="#000000" fill-rule="nonzero" opacity="0.05"></path>
            <path d="M117.532937,182.730802 C117.532937,182.730802 126.904422,193.654563 127.94528,197.296067 C128.98689,200.937571 140.440843,210.300794 140.440843,210.300794 C140.440843,210.300794 132.110218,216.543694 133.672257,219.664769 C135.234296,222.785843 122.739484,209.260686 122.739484,209.260686 L108.161453,187.932843 L117.532937,182.730802 Z" id="Path" fill="#EB6475" fill-rule="nonzero"></path>
            <path d="M117.532937,182.730802 C117.532937,182.730802 126.904422,193.654563 127.94528,197.296067 C128.98689,200.937571 140.440843,210.300794 140.440843,210.300794 C140.440843,210.300794 132.110218,216.543694 133.672257,219.664769 C135.234296,222.785843 122.739484,209.260686 122.739484,209.260686 L108.161453,187.932843 L117.532937,182.730802 Z" id="Path" fill="#000000" fill-rule="nonzero" opacity="0.1"></path>
            <path d="M123.780343,170.246504 C123.780343,170.246504 119.094976,185.331447 119.094976,191.053918 C119.094976,196.776388 99.310398,189.49338 99.8315784,186.372306 C100.352008,183.251231 111.285531,171.807041 111.805961,167.125429 C112.32639,162.443067 123.780343,170.246504 123.780343,170.246504 Z" id="Path" fill="#F8BDC5" fill-rule="nonzero"></path>
            <path d="M108.161453,180.649835 C108.161453,180.649835 89.9396647,175.968224 87.3360157,202.498108 C84.7331176,229.027992 89.4184843,232.149067 81.6090392,248.274869 C73.7996692,264.401422 134.713867,250.355835 134.713867,250.355835 C134.713867,250.355835 131.589788,246.714331 121.697875,248.274869 L117.012508,234.230033 C117.012508,234.230033 115.450469,227.987884 124.300773,227.987884 C133.151827,227.987884 128.98689,209.781116 128.98689,209.781116 C128.98689,209.781116 124.300773,194.174992 121.697875,192.614455 C119.094976,191.053918 114.408859,181.690694 108.161453,180.649835 Z" id="Path" fill="#000000" fill-rule="nonzero" opacity="0.1"></path>
            <path d="M108.161453,179.609727 C108.161453,179.609727 89.9396647,174.928116 87.3360157,201.458 C84.7331176,227.987884 89.4184843,231.108959 81.6090392,247.234761 C73.7996692,263.360563 134.713867,249.315727 134.713867,249.315727 C134.713867,249.315727 131.589788,245.674224 121.697875,247.234761 L117.012508,233.189925 C117.012508,233.189925 115.450469,226.947025 124.300773,226.947025 C133.151827,226.947025 128.98689,208.740257 128.98689,208.740257 C128.98689,208.740257 124.300773,193.134884 121.697875,191.574347 C119.094976,190.01381 114.408859,180.649835 108.161453,179.609727 Z" id="Path" fill="#EB6475" fill-rule="nonzero"></path>
            <path d="M126.383241,217.063373 C126.383241,217.063373 164.389608,221.225306 170.637765,220.184447 C170.637765,220.184447 198.543445,216.751716 191.462451,223.825951 C190.942022,224.34638 172.720233,228.507563 170.637765,227.987884 C168.554545,227.467455 124.300773,227.987884 124.300773,227.987884 L123.780343,222.785843 L126.383241,217.063373 Z" id="Path" fill="#F8BDC5" fill-rule="nonzero"></path>
            <path d="M97.2279294,204.058645 L124.821953,229.027992 C124.821953,229.027992 130.027749,218.62391 131.589788,218.62391 C133.151827,218.62391 112.84682,187.932843 112.84682,187.932843 C112.84682,187.932843 107.641024,181.690694 104.516945,184.811769 C101.392867,187.932843 92.0221333,185.851876 97.2279294,204.058645 Z" id="Path" fill="#000000" fill-rule="nonzero" opacity="0.1"></path>
            <path d="M96.7075,203.018537 L124.300773,227.987884 C124.300773,227.987884 129.50732,217.583802 131.069359,217.583802 C132.631398,217.583802 112.32639,186.891984 112.32639,186.891984 C112.32639,186.891984 107.119843,180.649835 103.996516,183.77091 C100.872437,186.891984 91.5009529,184.811769 96.7075,203.018537 Z" id="Path" fill="#EB6475" fill-rule="nonzero"></path>
            <path d="M119.094976,179.609727 C128.583614,179.609727 136.275906,171.924194 136.275906,162.443067 C136.275906,152.96269 128.583614,145.277157 119.094976,145.277157 C109.606339,145.277157 101.914047,152.96269 101.914047,162.443067 C101.914047,171.924194 109.606339,179.609727 119.094976,179.609727 Z" id="Path" fill="#F8BDC5" fill-rule="nonzero"></path>
            <path d="M134.140869,158.130937 C137.056925,159.280688 140.627837,157.901888 142.34608,155.285473 C144.064324,152.669057 144.012506,149.105655 142.564616,146.327778 C141.117476,143.549902 138.441733,141.531267 135.489629,140.480645 C133.698541,139.846067 131.704688,139.481841 130.329643,138.17138 C129.460759,137.3438 128.944835,136.22559 128.294486,135.216273 C125.862812,131.429829 121.5259,129.192659 117.116143,128.313261 C112.706386,127.434614 108.145682,127.746271 103.657824,128.058678 C101.981635,128.178084 100.013316,128.479978 99.2533235,129.978184 C98.6855824,131.101651 99.0558157,132.44891 98.9829706,133.703047 C98.7486647,137.692255 94.2968529,139.903141 90.4075255,140.860641 C86.518949,141.81739 82.0100627,142.717816 80.1153392,146.233906 C78.4173725,149.391778 79.6309569,153.220276 80.1566431,156.767908 C81.0555667,162.964998 79.7120627,169.279241 76.3664451,174.574404 C74.6639725,177.242637 72.4720861,179.614984 71.1236257,182.481476 C69.6320284,185.684408 69.2865024,189.30188 70.1448729,192.729355 C70.399981,193.732665 70.7591749,194.752496 70.5821688,195.772327 C70.3781275,196.610422 69.9744755,197.386184 69.4055327,198.035031 C67.123829,200.951839 64.2549337,203.358731 60.984339,205.098753 C57.7137443,206.838775 54.11407,207.873625 50.41812,208.13722 C51.0116198,210.368382 53.1722655,211.778724 55.2287502,212.818831 C58.7378563,214.621935 62.4360592,216.031525 66.2556957,217.022069 C68.8224716,217.688188 71.5089537,218.161306 74.1225157,217.708465 C76.7359275,217.256375 79.281751,215.721371 80.3699216,213.297206 C80.9947373,211.892873 81.0886098,210.306051 81.6405804,208.870927 C82.8849549,205.650724 86.2012843,203.704933 87.9818588,200.74532 C89.6843314,197.915625 90.3451941,197.58219 90.7777588,194.315425 C91.2095725,191.048661 92.1625667,187.522057 94.8488235,185.602551 C97.6604941,183.589173 101.61741,183.974425 104.740737,185.519192 C107.864816,187.063959 109.796337,186.460922 112.404492,188.728882 C116.980216,192.700067 122.101151,195.996871 127.612596,198.518663 C127.091416,193.982741 126.253322,188.921133 122.56751,186.221359 C121.5259,185.446347 120.20868,184.853073 119.65671,183.667275 C118.777312,181.77931 120.281525,179.474551 119.599635,177.503227 C118.917745,175.531153 116.32461,174.803453 115.174108,173.013867 C114.19558,171.494633 114.461427,169.429437 115.377624,167.8689 C116.29382,166.308363 117.740959,165.153355 119.183592,164.061429 C120.464014,163.093416 121.762459,162.148682 123.077425,161.226478 C124.266227,160.472494 125.333371,159.54278 126.242808,158.468878 C126.763988,157.756198 127.107186,156.195661 127.831131,155.691002 C129.65301,154.432359 132.454167,157.470075 134.140869,158.130937 Z" id="Path" fill="#000000" fill-rule="nonzero" opacity="0.1"></path>
            <path d="M133.620439,157.610508 C136.535745,158.760259 140.107408,157.38221 141.825651,154.765043 C143.543894,152.148627 143.491325,148.585225 142.044186,145.807349 C140.597047,143.029473 137.920553,141.011588 134.9692,139.960967 C133.178112,139.326388 131.183508,138.962163 129.809214,137.650951 C128.939578,136.824122 128.424406,135.705161 127.774057,134.696594 C125.342382,130.9094 121.005471,128.672229 116.595714,127.793582 C112.185957,126.914184 107.625253,127.226592 103.137394,127.538249 C101.461206,127.658406 99.4928863,127.959549 98.7328941,129.457755 C98.1651529,130.581222 98.5346353,131.929231 98.4617902,133.182618 C98.2274843,137.172576 93.7764235,139.383463 89.8870961,140.340212 C85.9985196,141.297712 81.4896333,142.197386 79.5941588,145.714227 C77.8969431,148.871349 79.1105275,152.699847 79.6362137,156.248229 C80.5351373,162.444569 79.1908824,168.758812 75.8460157,174.053975 C74.1433178,176.722959 71.9515065,179.094555 70.6030461,181.961047 C69.1113737,185.163978 68.7658476,188.781451 69.6242182,192.208925 C69.8793263,193.212986 70.2385953,194.232067 70.0615892,195.251898 C69.8575478,196.089992 69.4538959,196.866506 68.8849531,197.514602 C66.6032494,200.432161 63.7343541,202.838302 60.4637594,204.578324 C57.1930896,206.318345 53.5934904,207.353947 49.8974653,207.61679 C50.4909651,209.848704 52.6516108,211.258294 54.7080955,212.298402 C58.2172767,214.102257 61.9154796,215.511847 65.7351161,216.501639 C68.3018169,217.167759 70.988299,217.640876 73.601861,217.188786 C76.215498,216.735945 78.7613216,215.201692 79.8494922,212.777527 C80.4743078,211.372443 80.5681804,209.786373 81.120151,208.350498 C82.3637745,205.130294 85.6808549,203.185255 87.4614294,200.22489 C89.163902,197.395196 89.8247647,197.062512 90.2565784,193.795747 C90.6891431,190.528982 91.6421373,187.001627 94.3283941,185.082122 C97.1400647,183.068743 101.096229,183.453996 104.220308,184.998763 C107.344386,186.54428 109.275908,185.940492 111.884063,188.208453 C116.459786,192.180388 121.580722,195.477192 127.091416,197.998984 C126.570986,193.462312 125.732892,188.400704 122.04708,185.700929 C121.005471,184.925918 119.688251,184.333394 119.13628,183.146845 C118.256882,181.25888 119.761096,178.954122 119.079206,176.982798 C118.397316,175.011475 115.80418,174.283024 114.653678,172.493437 C113.675151,170.974955 113.940247,168.909759 114.857194,167.348471 C115.77339,165.787933 117.220529,164.633676 118.662412,163.541 C119.943584,162.573737 121.241278,161.628253 122.556996,160.706049 C123.745798,159.952065 124.812941,159.022351 125.722378,157.9492 C126.242808,157.23652 126.586757,155.675982 127.310702,155.171324 C129.13258,153.911929 131.933737,156.950396 133.620439,157.610508 Z" id="Path" fill="#916168" fill-rule="nonzero"></path>
            <g id="Group" opacity="0.1" transform="translate(152.449020, 311.656863)" fill="#FFFFFF" fill-rule="nonzero">
                <path d="M18.115149,4.70113725 C18.154951,3.31632941 18.3539608,1.94128431 18.7091745,0.602286275 L18.4485843,0.69015098 C18.1887451,2.01112549 18.076849,3.35613137 18.115149,4.70113725 Z" id="Path"></path>
                <path d="M20.7916431,24.0103451 C16.6267059,24.2551647 3.61071373,18.2886255 1.00781569,15.167551 C0.665368627,14.744749 0.455845098,14.2310784 0.403276471,13.6903725 C0.327427451,14.1289451 0.341696078,14.5780314 0.445331373,15.0113471 C0.548966667,15.4439118 0.740466667,15.8516941 1.00781569,16.2076588 C3.61071373,19.3287333 16.6267059,25.2952725 20.7916431,25.0512039 C25.2171706,24.7906137 40.0550412,25.5708824 40.5754706,18.8090549 C40.6145216,18.6220608 40.5889882,18.4275569 40.5026255,18.2570843 C39.3108196,24.4894706 25.1075275,23.7557627 20.7916431,24.0103451 Z" id="Path"></path>
            </g>
            <polygon id="Path" stroke="#FFAB50" stroke-width="0.25" fill="#FFD77C" fill-rule="nonzero" points="194.325939 180.389996 193.80551 180.389996 193.80551 201.717839 194.325939 201.717839"></polygon>
            <polygon id="Path" stroke="#FFAB50" stroke-width="0.25" fill="#FFD77C" fill-rule="nonzero" points="194.84712 180.389996 194.325939 180.389996 194.325939 201.717839 194.84712 201.717839"></polygon>
            <polygon id="Path" stroke="#FFAB50" stroke-width="0.25" fill="#FFD77C" fill-rule="nonzero" points="195.367549 180.389996 194.84712 180.389996 194.84712 201.717839 195.367549 201.717839"></polygon>
            <polygon id="Path" stroke="#FFAB50" stroke-width="0.25" fill="#FFD77C" fill-rule="nonzero" points="195.887978 180.389996 195.367549 180.389996 195.367549 201.717839 195.887978 201.717839"></polygon>
            <polygon id="Path" stroke="#FFAB50" stroke-width="0.25" fill="#FFD77C" fill-rule="nonzero" points="196.408408 180.389996 195.887978 180.389996 195.887978 201.717839 196.408408 201.717839"></polygon>
            <polygon id="Path" stroke="#FFAB50" stroke-width="0.25" fill="#FFD77C" fill-rule="nonzero" points="196.929588 180.389996 196.408408 180.389996 196.408408 201.717839 196.929588 201.717839"></polygon>
            <polygon id="Path" stroke="#FFAB50" stroke-width="0.25" fill="#FFD77C" fill-rule="nonzero" points="197.450018 180.389996 196.929588 180.389996 196.929588 201.717839 197.450018 201.717839"></polygon>
        </g>
    </g>
</svg>