<svg width="107" height="22" viewBox="0 0 107 22" fill="none" xmlns="http://www.w3.org/2000/svg">
<path d="M15.6113 14.793C15.3835 16.8893 14.6315 18.4935 13.3555 19.6055C12.0885 20.7174 10.3978 21.2734 8.2832 21.2734C6.80664 21.2734 5.4987 20.9043 4.35938 20.166C3.22917 19.4277 2.35417 18.3841 1.73438 17.0352C1.11458 15.6771 0.80013 14.1276 0.791016 12.3867V9.80273C0.791016 8.03451 1.10091 6.4668 1.7207 5.09961C2.34049 3.73242 3.22917 2.67969 4.38672 1.94141C5.55339 1.19401 6.89323 0.820312 8.40625 0.820312C10.5391 0.820312 12.2207 1.39909 13.4512 2.55664C14.6908 3.70508 15.4108 5.29557 15.6113 7.32812H13.916C13.4967 3.94661 11.6602 2.25586 8.40625 2.25586C6.60156 2.25586 5.16146 2.93034 4.08594 4.2793C3.01953 5.62826 2.48633 7.49219 2.48633 9.87109V12.3047C2.48633 14.6016 3.00586 16.4336 4.04492 17.8008C5.0931 19.168 6.50586 19.8516 8.2832 19.8516C10.0423 19.8516 11.3685 19.4323 12.2617 18.5938C13.1549 17.7461 13.7064 16.4792 13.916 14.793H15.6113ZM30.4453 15.4219H21.4082L19.3574 21H17.5938L25.127 1.09375H26.7266L34.2598 21H32.5098L30.4453 15.4219ZM21.9277 13.9863H29.9121L25.9199 3.14453L21.9277 13.9863ZM44.6367 12.7148H38.8535V21H37.1582V1.09375H43.625C45.7487 1.09375 47.4076 1.60872 48.6016 2.63867C49.7956 3.66862 50.3926 5.10872 50.3926 6.95898C50.3926 8.23503 50.0189 9.36068 49.2715 10.3359C48.5241 11.3112 47.5215 11.9857 46.2637 12.3594L51.2402 20.8223V21H49.4492L44.6367 12.7148ZM38.8535 11.2793H44.0078C45.4206 11.2793 46.5553 10.8783 47.4121 10.0762C48.2689 9.27409 48.6973 8.23503 48.6973 6.95898C48.6973 5.55534 48.2507 4.46615 47.3574 3.69141C46.4642 2.91667 45.2109 2.5293 43.5977 2.5293H38.8535V11.2793ZM65.9648 11.457H56.6543V19.5781H67.3594V21H54.9727V1.09375H67.291V2.5293H56.6543V10.0352H65.9648V11.457Z" fill="black"/>
<path d="M80.7715 9.11914H82.9453C84.668 9.11914 85.5293 8.27604 85.5293 6.58984C85.5293 5.93359 85.3242 5.40039 84.9141 4.99023C84.5039 4.57096 83.9251 4.36133 83.1777 4.36133C82.5671 4.36133 82.0339 4.53906 81.5781 4.89453C81.1315 5.25 80.9082 5.69206 80.9082 6.2207H76.3008C76.3008 5.17253 76.5924 4.23828 77.1758 3.41797C77.7591 2.59766 78.5658 1.95964 79.5957 1.50391C80.6348 1.03906 81.7741 0.806641 83.0137 0.806641C85.2285 0.806641 86.9694 1.3125 88.2363 2.32422C89.5033 3.33594 90.1367 4.72591 90.1367 6.49414C90.1367 7.35091 89.8724 8.16211 89.3438 8.92773C88.8242 9.68424 88.0632 10.2995 87.0605 10.7734C88.1178 11.1562 88.9473 11.7396 89.5488 12.5234C90.1504 13.2982 90.4512 14.2598 90.4512 15.4082C90.4512 17.1855 89.7676 18.6074 88.4004 19.6738C87.0332 20.7402 85.2376 21.2734 83.0137 21.2734C81.7103 21.2734 80.498 21.0273 79.377 20.5352C78.265 20.0339 77.4219 19.3457 76.8477 18.4707C76.2734 17.5866 75.9863 16.584 75.9863 15.4629H80.6211C80.6211 16.0736 80.8672 16.6022 81.3594 17.0488C81.8516 17.4954 82.4577 17.7188 83.1777 17.7188C83.9889 17.7188 84.6361 17.4954 85.1191 17.0488C85.6022 16.5931 85.8438 16.0143 85.8438 15.3125C85.8438 14.3099 85.5931 13.599 85.0918 13.1797C84.5905 12.7604 83.8978 12.5508 83.0137 12.5508H80.7715V9.11914ZM106.611 3.55469L99.1738 21H94.3066L101.758 4.64844H92.2695V1.09375H106.611V3.55469Z" fill="#1136FC"/>
</svg>
