<svg width="87" height="19" viewBox="0 0 87 19" fill="none" xmlns="http://www.w3.org/2000/svg">
<path d="M0.0507812 18V0.9375H4.86719C6.35156 0.9375 7.66406 1.26562 8.80469 1.92188C9.94531 2.57812 10.8242 3.51172 11.4414 4.72266C12.0664 5.93359 12.3828 7.32422 12.3906 8.89453V9.98438C12.3906 11.5938 12.0781 13.0039 11.4531 14.2148C10.8359 15.4258 9.94922 16.3555 8.79297 17.0039C7.64453 17.6523 6.30469 17.9844 4.77344 18H0.0507812ZM2.30078 2.78906V16.1602H4.66797C6.40234 16.1602 7.75 15.6211 8.71094 14.543C9.67969 13.4648 10.1641 11.9297 10.1641 9.9375V8.94141C10.1641 7.00391 9.70703 5.5 8.79297 4.42969C7.88672 3.35156 6.59766 2.80469 4.92578 2.78906H2.30078ZM14.8867 11.543C14.8867 10.3008 15.1289 9.18359 15.6133 8.19141C16.1055 7.19922 16.7852 6.43359 17.6523 5.89453C18.5273 5.35547 19.5234 5.08594 20.6406 5.08594C22.3672 5.08594 23.7617 5.68359 24.8242 6.87891C25.8945 8.07422 26.4297 9.66406 26.4297 11.6484V11.8008C26.4297 13.0352 26.1914 14.1445 25.7148 15.1289C25.2461 16.1055 24.5703 16.8672 23.6875 17.4141C22.8125 17.9609 21.8047 18.2344 20.6641 18.2344C18.9453 18.2344 17.5508 17.6367 16.4805 16.4414C15.418 15.2461 14.8867 13.6641 14.8867 11.6953V11.543ZM17.0664 11.8008C17.0664 13.207 17.3906 14.3359 18.0391 15.1875C18.6953 16.0391 19.5703 16.4648 20.6641 16.4648C21.7656 16.4648 22.6406 16.0352 23.2891 15.1758C23.9375 14.3086 24.2617 13.0977 24.2617 11.543C24.2617 10.1523 23.9297 9.02734 23.2656 8.16797C22.6094 7.30078 21.7344 6.86719 20.6406 6.86719C19.5703 6.86719 18.707 7.29297 18.0508 8.14453C17.3945 8.99609 17.0664 10.2148 17.0664 11.8008ZM31.1992 5.32031L31.2695 6.91406C32.2383 5.69531 33.5039 5.08594 35.0664 5.08594C37.7461 5.08594 39.0977 6.59766 39.1211 9.62109V18H36.9531V9.60938C36.9453 8.69531 36.7344 8.01953 36.3203 7.58203C35.9141 7.14453 35.2773 6.92578 34.4102 6.92578C33.707 6.92578 33.0898 7.11328 32.5586 7.48828C32.0273 7.86328 31.6133 8.35547 31.3164 8.96484V18H29.1484V5.32031H31.1992ZM50.2188 18C50.0938 17.75 49.9922 17.3047 49.9141 16.6641C48.9062 17.7109 47.7031 18.2344 46.3047 18.2344C45.0547 18.2344 44.0273 17.8828 43.2227 17.1797C42.4258 16.4688 42.0273 15.5703 42.0273 14.4844C42.0273 13.1641 42.5273 12.1406 43.5273 11.4141C44.5352 10.6797 45.9492 10.3125 47.7695 10.3125H49.8789V9.31641C49.8789 8.55859 49.6523 7.95703 49.1992 7.51172C48.7461 7.05859 48.0781 6.83203 47.1953 6.83203C46.4219 6.83203 45.7734 7.02734 45.25 7.41797C44.7266 7.80859 44.4648 8.28125 44.4648 8.83594H42.2852C42.2852 8.20312 42.5078 7.59375 42.9531 7.00781C43.4062 6.41406 44.0156 5.94531 44.7812 5.60156C45.5547 5.25781 46.4023 5.08594 47.3242 5.08594C48.7852 5.08594 49.9297 5.45312 50.7578 6.1875C51.5859 6.91406 52.0156 7.91797 52.0469 9.19922V15.0352C52.0469 16.1992 52.1953 17.125 52.4922 17.8125V18H50.2188ZM46.6211 16.3477C47.3008 16.3477 47.9453 16.1719 48.5547 15.8203C49.1641 15.4688 49.6055 15.0117 49.8789 14.4492V11.8477H48.1797C45.5234 11.8477 44.1953 12.625 44.1953 14.1797C44.1953 14.8594 44.4219 15.3906 44.875 15.7734C45.3281 16.1562 45.9102 16.3477 46.6211 16.3477ZM58.3867 2.25V5.32031H60.7539V6.99609H58.3867V14.8594C58.3867 15.3672 58.4922 15.75 58.7031 16.0078C58.9141 16.2578 59.2734 16.3828 59.7812 16.3828C60.0312 16.3828 60.375 16.3359 60.8125 16.2422V18C60.2422 18.1562 59.6875 18.2344 59.1484 18.2344C58.1797 18.2344 57.4492 17.9414 56.957 17.3555C56.4648 16.7695 56.2188 15.9375 56.2188 14.8594V6.99609H53.9102V5.32031H56.2188V2.25H58.3867ZM68.5586 18.2344C66.8398 18.2344 65.4414 17.6719 64.3633 16.5469C63.2852 15.4141 62.7461 13.9023 62.7461 12.0117V11.6133C62.7461 10.3555 62.9844 9.23438 63.4609 8.25C63.9453 7.25781 64.6172 6.48438 65.4766 5.92969C66.3438 5.36719 67.2812 5.08594 68.2891 5.08594C69.9375 5.08594 71.2188 5.62891 72.1328 6.71484C73.0469 7.80078 73.5039 9.35547 73.5039 11.3789V12.2812H64.9141C64.9453 13.5312 65.3086 14.543 66.0039 15.3164C66.707 16.082 67.5977 16.4648 68.6758 16.4648C69.4414 16.4648 70.0898 16.3086 70.6211 15.9961C71.1523 15.6836 71.6172 15.2695 72.0156 14.7539L73.3398 15.7852C72.2773 17.418 70.6836 18.2344 68.5586 18.2344ZM68.2891 6.86719C67.4141 6.86719 66.6797 7.1875 66.0859 7.82812C65.4922 8.46094 65.125 9.35156 64.9844 10.5H71.3359V10.3359C71.2734 9.23438 70.9766 8.38281 70.4453 7.78125C69.9141 7.17188 69.1953 6.86719 68.2891 6.86719ZM75.4961 11.5547C75.4961 9.60938 75.957 8.04688 76.8789 6.86719C77.8008 5.67969 79.0078 5.08594 80.5 5.08594C81.9844 5.08594 83.1602 5.59375 84.0273 6.60938V0H86.1953V18H84.2031L84.0977 16.6406C83.2305 17.7031 82.0234 18.2344 80.4766 18.2344C79.0078 18.2344 77.8086 17.6328 76.8789 16.4297C75.957 15.2266 75.4961 13.6562 75.4961 11.7188V11.5547ZM77.6641 11.8008C77.6641 13.2383 77.9609 14.3633 78.5547 15.1758C79.1484 15.9883 79.9688 16.3945 81.0156 16.3945C82.3906 16.3945 83.3945 15.7773 84.0273 14.543V8.71875C83.3789 7.52344 82.3828 6.92578 81.0391 6.92578C79.9766 6.92578 79.1484 7.33594 78.5547 8.15625C77.9609 8.97656 77.6641 10.1914 77.6641 11.8008Z" fill="black"/>
</svg>
