<svg width="398" height="75" viewBox="0 0 398 75" fill="none" xmlns="http://www.w3.org/2000/svg">
<path d="M31.4375 40.4062H13.4375V59H4.0625V13.5H33.6875V21.0938H13.4375V32.8438H31.4375V40.4062ZM53.4062 59.625C48.4479 59.625 44.4062 58.1042 41.2812 55.0625C38.1771 52.0208 36.625 47.9688 36.625 42.9062V42.0312C36.625 38.6354 37.2812 35.6042 38.5938 32.9375C39.9062 30.25 41.7604 28.1875 44.1562 26.75C46.5729 25.2917 49.3229 24.5625 52.4062 24.5625C57.0312 24.5625 60.6667 26.0208 63.3125 28.9375C65.9792 31.8542 67.3125 35.9896 67.3125 41.3438V45.0312H45.7812C46.0729 47.2396 46.9479 49.0104 48.4062 50.3438C49.8854 51.6771 51.75 52.3438 54 52.3438C57.4792 52.3438 60.1979 51.0833 62.1562 48.5625L66.5938 53.5312C65.2396 55.4479 63.4062 56.9479 61.0938 58.0312C58.7812 59.0938 56.2188 59.625 53.4062 59.625ZM52.375 31.875C50.5833 31.875 49.125 32.4792 48 33.6875C46.8958 34.8958 46.1875 36.625 45.875 38.875H58.4375V38.1562C58.3958 36.1562 57.8542 34.6146 56.8125 33.5312C55.7708 32.4271 54.2917 31.875 52.375 31.875ZM88.0312 59.625C83.0729 59.625 79.0312 58.1042 75.9062 55.0625C72.8021 52.0208 71.25 47.9688 71.25 42.9062V42.0312C71.25 38.6354 71.9062 35.6042 73.2188 32.9375C74.5312 30.25 76.3854 28.1875 78.7812 26.75C81.1979 25.2917 83.9479 24.5625 87.0312 24.5625C91.6562 24.5625 95.2917 26.0208 97.9375 28.9375C100.604 31.8542 101.938 35.9896 101.938 41.3438V45.0312H80.4062C80.6979 47.2396 81.5729 49.0104 83.0312 50.3438C84.5104 51.6771 86.375 52.3438 88.625 52.3438C92.1042 52.3438 94.8229 51.0833 96.7812 48.5625L101.219 53.5312C99.8646 55.4479 98.0312 56.9479 95.7188 58.0312C93.4062 59.0938 90.8438 59.625 88.0312 59.625ZM87 31.875C85.2083 31.875 83.75 32.4792 82.625 33.6875C81.5208 34.8958 80.8125 36.625 80.5 38.875H93.0625V38.1562C93.0208 36.1562 92.4792 34.6146 91.4375 33.5312C90.3958 32.4271 88.9167 31.875 87 31.875ZM105.688 41.8438C105.688 36.5729 106.865 32.375 109.219 29.25C111.594 26.125 114.833 24.5625 118.938 24.5625C122.229 24.5625 124.948 25.7917 127.094 28.25V11H136.156V59H128L127.562 55.4062C125.312 58.2188 122.417 59.625 118.875 59.625C114.896 59.625 111.698 58.0625 109.281 54.9375C106.885 51.7917 105.688 47.4271 105.688 41.8438ZM114.719 42.5C114.719 45.6667 115.271 48.0938 116.375 49.7812C117.479 51.4688 119.083 52.3125 121.188 52.3125C123.979 52.3125 125.948 51.1354 127.094 48.7812V35.4375C125.969 33.0833 124.021 31.9062 121.25 31.9062C116.896 31.9062 114.719 35.4375 114.719 42.5ZM185.375 49.625H168.938L165.812 59H155.844L172.781 13.5H181.469L198.5 59H188.531L185.375 49.625ZM171.469 42.0312H182.844L177.125 25L171.469 42.0312Z" fill="white"/>
<path d="M31.4375 40.4062V40.9062H31.9375V40.4062H31.4375ZM13.4375 40.4062V39.9062H12.9375V40.4062H13.4375ZM13.4375 59V59.5H13.9375V59H13.4375ZM4.0625 59H3.5625V59.5H4.0625V59ZM4.0625 13.5V13H3.5625V13.5H4.0625ZM33.6875 13.5H34.1875V13H33.6875V13.5ZM33.6875 21.0938V21.5938H34.1875V21.0938H33.6875ZM13.4375 21.0938V20.5938H12.9375V21.0938H13.4375ZM13.4375 32.8438H12.9375V33.3438H13.4375V32.8438ZM31.4375 32.8438H31.9375V32.3438H31.4375V32.8438ZM31.4375 39.9062H13.4375V40.9062H31.4375V39.9062ZM12.9375 40.4062V59H13.9375V40.4062H12.9375ZM13.4375 58.5H4.0625V59.5H13.4375V58.5ZM4.5625 59V13.5H3.5625V59H4.5625ZM4.0625 14H33.6875V13H4.0625V14ZM33.1875 13.5V21.0938H34.1875V13.5H33.1875ZM33.6875 20.5938H13.4375V21.5938H33.6875V20.5938ZM12.9375 21.0938V32.8438H13.9375V21.0938H12.9375ZM13.4375 33.3438H31.4375V32.3438H13.4375V33.3438ZM30.9375 32.8438V40.4062H31.9375V32.8438H30.9375ZM41.2812 55.0625L40.9313 55.4196L40.9325 55.4208L41.2812 55.0625ZM38.5938 32.9375L39.0424 33.1583L39.043 33.1569L38.5938 32.9375ZM44.1562 26.75L44.4135 27.1787L44.4146 27.1781L44.1562 26.75ZM63.3125 28.9375L62.9422 29.2734L62.9435 29.2749L63.3125 28.9375ZM67.3125 45.0312V45.5312H67.8125V45.0312H67.3125ZM45.7812 45.0312V44.5312H45.2109L45.2856 45.0967L45.7812 45.0312ZM48.4062 50.3438L48.0689 50.7128L48.0715 50.7151L48.4062 50.3438ZM62.1562 48.5625L62.5292 48.2294L62.1295 47.7819L61.7614 48.2558L62.1562 48.5625ZM66.5938 53.5312L67.0021 53.8198L67.2316 53.4949L66.9667 53.1982L66.5938 53.5312ZM61.0938 58.0312L61.3025 58.4856L61.3059 58.484L61.0938 58.0312ZM48 33.6875L47.634 33.3468L47.6309 33.3502L48 33.6875ZM45.875 38.875L45.3798 38.8062L45.3008 39.375H45.875V38.875ZM58.4375 38.875V39.375H58.9375V38.875H58.4375ZM58.4375 38.1562H58.9376L58.9374 38.1458L58.4375 38.1562ZM56.8125 33.5312L56.4488 33.8744L56.4521 33.8778L56.8125 33.5312ZM53.4062 59.125C48.5588 59.125 44.6486 57.6424 41.63 54.7042L40.9325 55.4208C44.1639 58.566 48.337 60.125 53.4062 60.125V59.125ZM41.6312 54.7054C38.6389 51.7733 37.125 47.8584 37.125 42.9062H36.125C36.125 48.0791 37.7153 52.2683 40.9313 55.4196L41.6312 54.7054ZM37.125 42.9062V42.0312H36.125V42.9062H37.125ZM37.125 42.0312C37.125 38.701 37.7682 35.7471 39.0424 33.1583L38.1451 32.7167C36.7943 35.4613 36.125 38.5698 36.125 42.0312H37.125ZM39.043 33.1569C40.3162 30.5499 42.1065 28.563 44.4135 27.1787L43.899 26.3213C41.4144 27.812 39.4963 29.9501 38.1445 32.7181L39.043 33.1569ZM44.4146 27.1781C46.7462 25.7711 49.4053 25.0625 52.4062 25.0625V24.0625C49.2406 24.0625 46.3997 24.8122 43.8979 26.3219L44.4146 27.1781ZM52.4062 25.0625C56.9171 25.0625 60.4078 26.4797 62.9422 29.2734L63.6828 28.6016C60.9255 25.562 57.1454 24.0625 52.4062 24.0625V25.0625ZM62.9435 29.2749C65.4998 32.0709 66.8125 36.0695 66.8125 41.3438H67.8125C67.8125 35.9096 66.4585 31.6374 63.6815 28.6001L62.9435 29.2749ZM66.8125 41.3438V45.0312H67.8125V41.3438H66.8125ZM67.3125 44.5312H45.7812V45.5312H67.3125V44.5312ZM45.2856 45.0967C45.5905 47.4059 46.5126 49.2899 48.0689 50.7128L48.7436 49.9747C47.3832 48.7309 46.5553 47.0732 46.2769 44.9658L45.2856 45.0967ZM48.0715 50.7151C49.6545 52.1421 51.6436 52.8438 54 52.8438V51.8438C51.8564 51.8438 50.1163 51.212 48.741 49.9724L48.0715 50.7151ZM54 52.8438C57.6176 52.8438 60.4887 51.5241 62.5511 48.8692L61.7614 48.2558C59.9072 50.6426 57.3407 51.8438 54 51.8438V52.8438ZM61.7833 48.8956L66.2208 53.8643L66.9667 53.1982L62.5292 48.2294L61.7833 48.8956ZM66.1854 53.2427C64.8856 55.0824 63.1227 56.5286 60.8816 57.5785L61.3059 58.484C63.6898 57.3672 65.5935 55.8134 67.0021 53.8198L66.1854 53.2427ZM60.885 57.5769C58.6446 58.6063 56.1543 59.125 53.4062 59.125V60.125C56.2832 60.125 58.9179 59.5812 61.3025 58.4856L60.885 57.5769ZM52.375 31.375C50.4577 31.375 48.8623 32.0276 47.6341 33.3468L48.3659 34.0282C49.3877 32.9307 50.7089 32.375 52.375 32.375V31.375ZM47.6309 33.3502C46.4367 34.6571 45.7009 36.4937 45.3798 38.8062L46.3702 38.9438C46.6741 36.7563 47.355 35.1346 48.3691 34.0248L47.6309 33.3502ZM45.875 39.375H58.4375V38.375H45.875V39.375ZM58.9375 38.875V38.1562H57.9375V38.875H58.9375ZM58.9374 38.1458C58.894 36.0627 58.3272 34.3851 57.1729 33.1847L56.4521 33.8778C57.3811 34.844 57.8977 36.2498 57.9376 38.1667L58.9374 38.1458ZM57.1762 33.1881C56.0166 31.959 54.3909 31.375 52.375 31.375V32.375C54.1924 32.375 55.5251 32.8952 56.4488 33.8744L57.1762 33.1881ZM75.9062 55.0625L75.5563 55.4196L75.5575 55.4208L75.9062 55.0625ZM73.2188 32.9375L73.6674 33.1583L73.668 33.1569L73.2188 32.9375ZM78.7812 26.75L79.0385 27.1787L79.0396 27.1781L78.7812 26.75ZM97.9375 28.9375L97.5672 29.2734L97.5685 29.2749L97.9375 28.9375ZM101.938 45.0312V45.5312H102.438V45.0312H101.938ZM80.4062 45.0312V44.5312H79.8359L79.9106 45.0967L80.4062 45.0312ZM83.0312 50.3438L82.6939 50.7128L82.6965 50.7151L83.0312 50.3438ZM96.7812 48.5625L97.1542 48.2294L96.7545 47.7819L96.3864 48.2558L96.7812 48.5625ZM101.219 53.5312L101.627 53.8198L101.857 53.4949L101.592 53.1982L101.219 53.5312ZM95.7188 58.0312L95.9275 58.4856L95.9309 58.484L95.7188 58.0312ZM82.625 33.6875L82.259 33.3468L82.2559 33.3502L82.625 33.6875ZM80.5 38.875L80.0048 38.8062L79.9258 39.375H80.5V38.875ZM93.0625 38.875V39.375H93.5625V38.875H93.0625ZM93.0625 38.1562H93.5626L93.5624 38.1458L93.0625 38.1562ZM91.4375 33.5312L91.0738 33.8744L91.0771 33.8778L91.4375 33.5312ZM88.0312 59.125C83.1838 59.125 79.2736 57.6424 76.255 54.7042L75.5575 55.4208C78.7889 58.566 82.962 60.125 88.0312 60.125V59.125ZM76.2562 54.7054C73.2639 51.7733 71.75 47.8584 71.75 42.9062H70.75C70.75 48.0791 72.3403 52.2683 75.5563 55.4196L76.2562 54.7054ZM71.75 42.9062V42.0312H70.75V42.9062H71.75ZM71.75 42.0312C71.75 38.701 72.3932 35.7471 73.6674 33.1583L72.7701 32.7167C71.4193 35.4613 70.75 38.5698 70.75 42.0312H71.75ZM73.668 33.1569C74.9412 30.5499 76.7315 28.563 79.0385 27.1787L78.524 26.3213C76.0394 27.812 74.1213 29.9501 72.7695 32.7181L73.668 33.1569ZM79.0396 27.1781C81.3712 25.7711 84.0303 25.0625 87.0312 25.0625V24.0625C83.8656 24.0625 81.0247 24.8122 78.5229 26.3219L79.0396 27.1781ZM87.0312 25.0625C91.5421 25.0625 95.0328 26.4797 97.5672 29.2734L98.3078 28.6016C95.5505 25.562 91.7704 24.0625 87.0312 24.0625V25.0625ZM97.5685 29.2749C100.125 32.0709 101.438 36.0695 101.438 41.3438H102.438C102.438 35.9096 101.084 31.6374 98.3065 28.6001L97.5685 29.2749ZM101.438 41.3438V45.0312H102.438V41.3438H101.438ZM101.938 44.5312H80.4062V45.5312H101.938V44.5312ZM79.9106 45.0967C80.2155 47.4059 81.1376 49.2899 82.6939 50.7128L83.3686 49.9747C82.0082 48.7309 81.1803 47.0732 80.9019 44.9658L79.9106 45.0967ZM82.6965 50.7151C84.2795 52.1421 86.2686 52.8438 88.625 52.8438V51.8438C86.4814 51.8438 84.7413 51.212 83.366 49.9724L82.6965 50.7151ZM88.625 52.8438C92.2426 52.8438 95.1137 51.5241 97.1761 48.8692L96.3864 48.2558C94.5322 50.6426 91.9657 51.8438 88.625 51.8438V52.8438ZM96.4083 48.8956L100.846 53.8643L101.592 53.1982L97.1542 48.2294L96.4083 48.8956ZM100.81 53.2427C99.5106 55.0824 97.7477 56.5286 95.5066 57.5785L95.9309 58.484C98.3148 57.3672 100.219 55.8134 101.627 53.8198L100.81 53.2427ZM95.51 57.5769C93.2696 58.6063 90.7793 59.125 88.0312 59.125V60.125C90.9082 60.125 93.5429 59.5812 95.9275 58.4856L95.51 57.5769ZM87 31.375C85.0827 31.375 83.4873 32.0276 82.2591 33.3468L82.9909 34.0282C84.0127 32.9307 85.3339 32.375 87 32.375V31.375ZM82.2559 33.3502C81.0617 34.6571 80.3259 36.4937 80.0048 38.8062L80.9952 38.9438C81.2991 36.7563 81.98 35.1346 82.9941 34.0248L82.2559 33.3502ZM80.5 39.375H93.0625V38.375H80.5V39.375ZM93.5625 38.875V38.1562H92.5625V38.875H93.5625ZM93.5624 38.1458C93.519 36.0627 92.9522 34.3851 91.7979 33.1847L91.0771 33.8778C92.0061 34.844 92.5227 36.2498 92.5626 38.1667L93.5624 38.1458ZM91.8012 33.1881C90.6416 31.959 89.0159 31.375 87 31.375V32.375C88.8174 32.375 90.1501 32.8952 91.0738 33.8744L91.8012 33.1881ZM109.219 29.25L108.821 28.9475L108.819 28.9491L109.219 29.25ZM127.094 28.25L126.717 28.5788L127.594 29.5832V28.25H127.094ZM127.094 11V10.5H126.594V11H127.094ZM136.156 11H136.656V10.5H136.156V11ZM136.156 59V59.5H136.656V59H136.156ZM128 59L127.504 59.0604L127.557 59.5H128V59ZM127.562 55.4062L128.059 55.3458L127.915 54.1651L127.172 55.0939L127.562 55.4062ZM109.281 54.9375L108.883 55.2405L108.886 55.2434L109.281 54.9375ZM127.094 48.7812L127.543 49.0001L127.594 48.8965V48.7812H127.094ZM127.094 35.4375H127.594V35.3242L127.545 35.2219L127.094 35.4375ZM106.188 41.8438C106.188 36.6442 107.349 32.5635 109.618 29.5509L108.819 28.9491C106.381 32.1865 105.188 36.5017 105.188 41.8438H106.188ZM109.617 29.5525C111.892 26.5584 114.981 25.0625 118.938 25.0625V24.0625C114.685 24.0625 111.295 25.6916 108.821 28.9475L109.617 29.5525ZM118.938 25.0625C122.086 25.0625 124.667 26.2303 126.717 28.5788L127.47 27.9212C125.229 25.353 122.372 24.0625 118.938 24.0625V25.0625ZM127.594 28.25V11H126.594V28.25H127.594ZM127.094 11.5H136.156V10.5H127.094V11.5ZM135.656 11V59H136.656V11H135.656ZM136.156 58.5H128V59.5H136.156V58.5ZM128.496 58.9396L128.059 55.3458L127.066 55.4667L127.504 59.0604L128.496 58.9396ZM127.172 55.0939C125.015 57.7901 122.262 59.125 118.875 59.125V60.125C122.572 60.125 125.61 58.6474 127.953 55.7186L127.172 55.0939ZM118.875 59.125C115.049 59.125 111.998 57.6331 109.677 54.6316L108.886 55.2434C111.398 58.4919 114.742 60.125 118.875 60.125V59.125ZM109.679 54.6346C107.372 51.6053 106.188 47.3616 106.188 41.8438H105.188C105.188 47.4926 106.399 51.9781 108.883 55.2404L109.679 54.6346ZM114.219 42.5C114.219 45.7129 114.777 48.252 115.957 50.055L116.793 49.5075C115.765 47.9355 115.219 45.6204 115.219 42.5H114.219ZM115.957 50.055C117.158 51.8909 118.923 52.8125 121.188 52.8125V51.8125C119.243 51.8125 117.8 51.0466 116.793 49.5075L115.957 50.055ZM121.188 52.8125C122.654 52.8125 123.937 52.5029 125.014 51.8588C126.094 51.2136 126.934 50.2518 127.543 49.0001L126.644 48.5624C126.108 49.6648 125.391 50.4687 124.501 51.0005C123.61 51.5336 122.513 51.8125 121.188 51.8125V52.8125ZM127.594 48.7812V35.4375H126.594V48.7812H127.594ZM127.545 35.2219C126.947 33.97 126.117 33.0072 125.048 32.3611C123.98 31.7161 122.707 31.4062 121.25 31.4062V32.4062C122.564 32.4062 123.65 32.6849 124.53 33.217C125.409 33.748 126.116 34.5508 126.643 35.6531L127.545 35.2219ZM121.25 31.4062C118.91 31.4062 117.111 32.3703 115.926 34.2923C114.766 36.1745 114.219 38.9336 114.219 42.5H115.219C115.219 39.0039 115.761 36.4661 116.777 34.8171C117.769 33.2078 119.236 32.4062 121.25 32.4062V31.4062ZM185.375 49.625L185.849 49.4655L185.734 49.125H185.375V49.625ZM168.938 49.625V49.125H168.577L168.463 49.4669L168.938 49.625ZM165.812 59V59.5H166.173L166.287 59.1581L165.812 59ZM155.844 59L155.375 58.8256L155.124 59.5H155.844V59ZM172.781 13.5V13H172.434L172.313 13.3256L172.781 13.5ZM181.469 13.5L181.937 13.3247L181.815 13H181.469V13.5ZM198.5 59V59.5H199.221L198.968 58.8247L198.5 59ZM188.531 59L188.057 59.1595L188.172 59.5H188.531V59ZM171.469 42.0312L170.994 41.8737L170.776 42.5312H171.469V42.0312ZM182.844 42.0312V42.5312H183.539L183.318 41.8721L182.844 42.0312ZM177.125 25L177.599 24.8408L177.122 23.4215L176.65 24.8424L177.125 25ZM185.375 49.125H168.938V50.125H185.375V49.125ZM168.463 49.4669L165.338 58.8419L166.287 59.1581L169.412 49.7831L168.463 49.4669ZM165.812 58.5H155.844V59.5H165.812V58.5ZM156.312 59.1744L173.25 13.6744L172.313 13.3256L155.375 58.8256L156.312 59.1744ZM172.781 14H181.469V13H172.781V14ZM181 13.6753L198.032 59.1753L198.968 58.8247L181.937 13.3247L181 13.6753ZM198.5 58.5H188.531V59.5H198.5V58.5ZM189.005 58.8405L185.849 49.4655L184.901 49.7845L188.057 59.1595L189.005 58.8405ZM171.469 42.5312H182.844V41.5312H171.469V42.5312ZM183.318 41.8721L177.599 24.8408L176.651 25.1592L182.37 42.1904L183.318 41.8721ZM176.65 24.8424L170.994 41.8737L171.943 42.1888L177.6 25.1576L176.65 24.8424Z" fill="black"/>
<path d="M247.438 40.4062H229.438V59H220.062V13.5H249.688V21.0938H229.438V32.8438H247.438V40.4062ZM272.719 33.6562C271.49 33.4896 270.406 33.4062 269.469 33.4062C266.052 33.4062 263.812 34.5625 262.75 36.875V59H253.719V25.1875H262.25L262.5 29.2188C264.312 26.1146 266.823 24.5625 270.031 24.5625C271.031 24.5625 271.969 24.6979 272.844 24.9688L272.719 33.6562ZM286.625 59H277.562V25.1875H286.625V59ZM277.031 16.4375C277.031 15.0833 277.479 13.9688 278.375 13.0938C279.292 12.2188 280.531 11.7812 282.094 11.7812C283.635 11.7812 284.865 12.2188 285.781 13.0938C286.698 13.9688 287.156 15.0833 287.156 16.4375C287.156 17.8125 286.688 18.9375 285.75 19.8125C284.833 20.6875 283.615 21.125 282.094 21.125C280.573 21.125 279.344 20.6875 278.406 19.8125C277.49 18.9375 277.031 17.8125 277.031 16.4375ZM309.656 59.625C304.698 59.625 300.656 58.1042 297.531 55.0625C294.427 52.0208 292.875 47.9688 292.875 42.9062V42.0312C292.875 38.6354 293.531 35.6042 294.844 32.9375C296.156 30.25 298.01 28.1875 300.406 26.75C302.823 25.2917 305.573 24.5625 308.656 24.5625C313.281 24.5625 316.917 26.0208 319.562 28.9375C322.229 31.8542 323.562 35.9896 323.562 41.3438V45.0312H302.031C302.323 47.2396 303.198 49.0104 304.656 50.3438C306.135 51.6771 308 52.3438 310.25 52.3438C313.729 52.3438 316.448 51.0833 318.406 48.5625L322.844 53.5312C321.49 55.4479 319.656 56.9479 317.344 58.0312C315.031 59.0938 312.469 59.625 309.656 59.625ZM308.625 31.875C306.833 31.875 305.375 32.4792 304.25 33.6875C303.146 34.8958 302.438 36.625 302.125 38.875H314.688V38.1562C314.646 36.1562 314.104 34.6146 313.062 33.5312C312.021 32.4271 310.542 31.875 308.625 31.875ZM337.031 25.1875L337.312 29.0938C339.729 26.0729 342.969 24.5625 347.031 24.5625C350.615 24.5625 353.281 25.6146 355.031 27.7188C356.781 29.8229 357.677 32.9688 357.719 37.1562V59H348.688V37.375C348.688 35.4583 348.271 34.0729 347.438 33.2188C346.604 32.3438 345.219 31.9062 343.281 31.9062C340.74 31.9062 338.833 32.9896 337.562 35.1562V59H328.531V25.1875H337.031ZM363.188 41.8438C363.188 36.5729 364.365 32.375 366.719 29.25C369.094 26.125 372.333 24.5625 376.438 24.5625C379.729 24.5625 382.448 25.7917 384.594 28.25V11H393.656V59H385.5L385.062 55.4062C382.812 58.2188 379.917 59.625 376.375 59.625C372.396 59.625 369.198 58.0625 366.781 54.9375C364.385 51.7917 363.188 47.4271 363.188 41.8438ZM372.219 42.5C372.219 45.6667 372.771 48.0938 373.875 49.7812C374.979 51.4688 376.583 52.3125 378.688 52.3125C381.479 52.3125 383.448 51.1354 384.594 48.7812V35.4375C383.469 33.0833 381.521 31.9062 378.75 31.9062C374.396 31.9062 372.219 35.4375 372.219 42.5Z" fill="#1136FC"/>
</svg>
